<svg width="218" height="74" viewBox="0 0 218 74" fill="none" xmlns="http://www.w3.org/2000/svg">
<path fill-rule="evenodd" clip-rule="evenodd" d="M35.58 0.655252C35.657 0.675252 35.783 0.675252 35.86 0.655252C35.937 0.635052 35.874 0.618652 35.72 0.618652C35.566 0.618652 35.503 0.635052 35.58 0.655252ZM33.0312 1.11425C33.007 1.17705 33.0032 1.31205 33.0228 1.41425C33.0504 1.55945 33.0606 1.54465 33.0692 1.34665C33.075 1.20745 33.125 1.07525 33.18 1.05305C33.2584 1.02145 33.2578 1.01125 33.1774 1.00645C33.1212 1.00285 33.0552 1.05145 33.0312 1.11425ZM65.0812 3.62005C64.9874 3.74105 64.4178 4.35805 63.8154 4.99125C63.213 5.62425 62.666 6.22145 62.6 6.31825C62.534 6.41485 62.282 6.66745 62.04 6.87925C61.798 7.09125 61.402 7.46785 61.16 7.71625C60.918 7.96485 60.1444 8.68825 59.441 9.32405C58.7376 9.95985 58.0536 10.5873 57.921 10.7181C57.7884 10.8491 57.5556 11.0421 57.4034 11.1471C57.2514 11.2519 56.9814 11.4597 56.8034 11.6085C55.5436 12.6635 55.213 12.9285 55.057 13.0083C54.9596 13.0581 54.736 13.2321 54.56 13.3949C54.384 13.5577 54.1626 13.7425 54.068 13.8055C53.5712 14.1367 51.894 15.3177 51.5716 15.5635C51.3672 15.7193 51.056 15.9331 50.88 16.0383C50.704 16.1435 50.218 16.4529 49.8 16.7255C49.382 16.9981 48.889 17.2971 48.7046 17.3899C48.5202 17.4827 48.2322 17.6525 48.0646 17.7673C47.897 17.8821 47.688 18.0091 47.6 18.0493C47.512 18.0895 47.332 18.1913 47.2 18.2755C46.8852 18.4761 46.8958 18.4779 46.7708 18.1955C46.7112 18.0609 46.6418 17.9715 46.6166 17.9969C46.5914 18.0221 46.6132 18.0853 46.6654 18.1375C46.8862 18.3583 46.7588 18.5073 46.02 18.8909C44.867 19.4895 43.304 20.2511 42.75 20.4843L42.2466 20.6963L42.0914 20.5081L41.9362 20.3201L41.9874 20.5309C42.0528 20.8011 42.0048 20.8361 41.08 21.1957C40.662 21.3583 40.0344 21.6033 39.6856 21.7405C39.3366 21.8775 38.6706 22.0923 38.2056 22.2175C36.6156 22.6457 35.2802 22.9811 34.94 23.0377L34.6 23.0941L34.5922 22.7471L34.5842 22.4001L34.4886 22.7601C34.3662 23.2207 34.4976 23.1821 31.12 23.7479C28.6172 24.1671 28.736 24.1927 28.9462 23.2801C28.9956 23.0657 28.9892 23.0701 28.8868 23.3201C28.8238 23.4741 28.7694 23.7179 28.766 23.8619C28.7568 24.2575 28.0966 24.3659 24.24 24.6043C23.624 24.6423 22.526 24.7107 21.8 24.7561C18.6602 24.9525 11.8316 24.7661 9.03999 24.4077C8.51199 24.3399 7.62999 24.2467 7.07999 24.2003C6.52999 24.1541 5.68399 24.0467 5.19999 23.9617C4.71599 23.8769 3.79799 23.7317 3.15999 23.6395C2.52199 23.5471 1.73219 23.4015 1.40499 23.3159C0.254189 23.0147 -0.0438111 23.1677 0.679989 23.6877C0.899989 23.8457 1.08019 23.9987 1.08019 24.0277C1.08039 24.0565 1.30539 24.2601 1.57999 24.4801C2.03979 24.8485 2.45319 25.2057 3.51999 26.1567C3.95919 26.5483 4.81579 27.2881 5.58479 27.9399C5.85719 28.1709 6.25999 28.5203 6.47999 28.7165C6.69999 28.9127 7.04199 29.2085 7.23999 29.3737C7.43799 29.5391 7.83639 29.8917 8.12519 30.1573C8.41399 30.4227 9.05659 30.9821 9.55339 31.4001C10.0502 31.8181 10.5338 32.2391 10.6284 32.3357C10.7228 32.4323 10.932 32.6123 11.0934 32.7357C11.5288 33.0689 12.7172 34.0837 14.16 35.3551C14.864 35.9753 15.566 36.5774 15.72 36.6931C15.874 36.8089 16.126 37.0195 16.28 37.1613C16.434 37.3031 16.776 37.5995 17.04 37.8199C17.6568 38.3351 18.6944 39.2357 20.289 40.6401C21.9508 42.1037 22.9552 42.9701 24.2296 44.0401C25.3296 44.9635 25.3268 44.9464 24.6348 46.5917C24.346 47.2783 24.0198 48.0561 23.9102 48.3201C23.8004 48.5841 23.6356 48.9801 23.5436 49.2001C23.4518 49.4201 23.3242 49.7261 23.2604 49.8801C23.1964 50.034 23.0778 50.3041 22.9968 50.4801C22.9158 50.6561 22.7734 50.9981 22.6806 51.2401C22.5878 51.4821 22.388 51.9773 22.2368 52.3405C22.0856 52.7037 21.8326 53.3157 21.6746 53.7005C21.421 54.3179 21.024 55.2565 20.2784 57.0001C19.6622 58.4411 19.4 59.0865 19.4 59.1621C19.4 59.2079 19.3056 59.4315 19.1904 59.6591C19.0018 60.0313 18.8252 60.4449 17.918 62.6401C17.7726 62.9921 17.4492 63.7661 17.1996 64.3601C16.9498 64.9541 16.6804 65.6201 16.6006 65.8401C16.4322 66.3051 16.1792 66.9051 15.9596 67.3601C15.8304 67.6277 15.5342 68.3253 15.2462 69.0401C14.975 69.7131 14.365 71.1623 14.1094 71.7403C13.9392 72.1253 13.8 72.4775 13.8 72.5229C13.8 72.5683 13.7138 72.7757 13.6082 72.9839C13.426 73.3435 13.3702 73.5493 13.3908 73.7855C13.4142 74.0535 13.8938 73.6487 15.7768 71.7711C16.8862 70.6651 17.8316 69.7241 17.8776 69.6801C18.314 69.2637 24.7386 62.6771 26.8 60.5327C27.328 59.9835 27.94 59.3471 28.16 59.1185C30.217 56.9813 31.526 55.6013 31.8766 55.2001C32.1074 54.9361 32.5174 54.5003 32.788 54.2319C33.0586 53.9633 33.514 53.4843 33.8 53.1675C34.086 52.8507 34.536 52.3673 34.8 52.0935C35.064 51.8195 35.8152 51.0025 36.4692 50.2779C37.1232 49.5531 37.9912 48.6001 38.3982 48.1601C38.805 47.7201 39.332 47.1369 39.569 46.8639C39.806 46.5909 40.63 45.6607 41.4 44.7967C43.5134 42.4251 46.1632 39.2569 46.906 38.2136C47.1718 37.8405 47.6924 37.1387 48.3642 36.2485C49.1312 35.2317 51.1072 32.3697 51.601 31.5601C51.6948 31.4061 51.9482 31.0101 52.1642 30.6801C52.5694 30.0603 52.9878 29.3699 53.5454 28.4001C54.4906 26.7567 54.9928 25.9857 55.2168 25.8341C55.4154 25.6997 55.44 25.6539 55.3454 25.5941C55.2286 25.5201 55.4032 25.1707 56.602 23.0801C56.766 22.7941 57.0702 22.2361 57.2782 21.8401C57.7484 20.9441 57.8266 20.8561 58.1884 20.8179L58.48 20.7869L58.18 20.7735C57.8094 20.7569 57.7676 20.9131 58.5284 19.4701C58.885 18.7935 59.462 17.6461 59.8106 16.9201C60.1592 16.1941 60.5176 15.4741 60.6072 15.3201C60.6968 15.1661 60.841 14.8781 60.928 14.6801C61.015 14.4821 61.1554 14.1761 61.2402 14.0001C61.7212 13.0021 62.8896 10.3929 63.1352 9.76825C63.2928 9.36785 63.5758 8.73405 63.764 8.36005C63.9524 7.98605 64.1492 7.51805 64.2016 7.32005C64.254 7.12205 64.3544 6.85205 64.425 6.72005C64.6404 6.31665 64.9132 5.64745 65.5264 4.01845C65.7612 3.39465 65.4628 3.12745 65.0812 3.62005ZM39.8056 4.32005C39.8056 4.36405 39.8572 4.49005 39.92 4.60005C39.9828 4.71005 40.0344 4.76405 40.0344 4.72005C40.0344 4.67605 39.9828 4.55005 39.92 4.44005C39.8572 4.33005 39.8056 4.27605 39.8056 4.32005ZM36.709 9.28045C36.7754 9.34685 36.8532 9.47545 36.882 9.56665C36.911 9.65765 36.952 9.71465 36.9732 9.69345C37.0332 9.63345 36.7662 9.16005 36.6722 9.16005C36.6262 9.16005 36.6428 9.21425 36.709 9.28045ZM37.5656 10.9601C37.5656 11.0041 37.6172 11.1301 37.68 11.2401C37.7428 11.3501 37.7944 11.4041 37.7944 11.3601C37.7944 11.3161 37.7428 11.1901 37.68 11.0801C37.6172 10.9701 37.5656 10.9161 37.5656 10.9601ZM31.0444 11.7645C31.0144 11.9251 31.0056 12.0725 31.0252 12.0921C31.0448 12.1115 31.0854 11.9963 31.1156 11.8357C31.1456 11.6751 31.1544 11.5277 31.1348 11.5081C31.1152 11.4887 31.0746 11.6039 31.0444 11.7645ZM30.64 13.9601C30.6096 14.0983 30.6014 14.2283 30.6218 14.2485C30.6422 14.2689 30.6818 14.1707 30.71 14.0301C30.7766 13.6967 30.712 13.6321 30.64 13.9601ZM35.691 14.8911C35.6626 15.0973 35.6548 15.2817 35.6738 15.3005C35.6926 15.3193 35.733 15.1679 35.7636 14.9637C35.7942 14.7597 35.802 14.5753 35.7808 14.5543C35.7596 14.5331 35.7192 14.6847 35.691 14.8911ZM46.16 17.1601C46.2282 17.2921 46.3022 17.4001 46.3242 17.4001C46.3462 17.4001 46.3082 17.2921 46.24 17.1601C46.1718 17.0281 46.0978 16.9201 46.0758 16.9201C46.0538 16.9201 46.0918 17.0281 46.16 17.1601ZM71.94 19.0025C72.039 19.0423 72.12 19.1181 72.12 19.1709C72.12 19.2237 72.1432 19.2437 72.1714 19.2153C72.2494 19.1373 72.0382 18.9195 71.8902 18.9251C71.802 18.9287 71.8182 18.9537 71.94 19.0025ZM70.62 19.0553C70.697 19.0753 70.823 19.0753 70.9 19.0553C70.977 19.0351 70.914 19.0187 70.76 19.0187C70.606 19.0187 70.543 19.0351 70.62 19.0553ZM69.5 19.2153C69.577 19.2353 69.703 19.2353 69.78 19.2153C69.857 19.1951 69.794 19.1787 69.64 19.1787C69.486 19.1787 69.423 19.1951 69.5 19.2153ZM34.9386 19.9601C34.9386 20.1141 34.955 20.1771 34.9752 20.1001C34.9952 20.0231 34.9952 19.8971 34.9752 19.8201C34.955 19.7431 34.9386 19.8061 34.9386 19.9601ZM64.86 19.8553C64.937 19.8753 65.063 19.8753 65.14 19.8553C65.217 19.8351 65.154 19.8187 65 19.8187C64.846 19.8187 64.783 19.8351 64.86 19.8553ZM63.74 20.0153C63.817 20.0353 63.943 20.0353 64.02 20.0153C64.097 19.9951 64.034 19.9787 63.88 19.9787C63.726 19.9787 63.663 19.9951 63.74 20.0153ZM72.3802 20.8001C72.381 20.9761 72.3974 21.0387 72.4166 20.9391C72.4358 20.8397 72.435 20.6957 72.415 20.6191C72.395 20.5427 72.3792 20.6241 72.3802 20.8001ZM59.1 20.6553C59.177 20.6753 59.303 20.6753 59.38 20.6553C59.457 20.6351 59.394 20.6187 59.24 20.6187C59.086 20.6187 59.023 20.6351 59.1 20.6553ZM72.5386 21.8801C72.5386 22.0341 72.555 22.0971 72.5752 22.0201C72.5952 21.9431 72.5952 21.8171 72.5752 21.7401C72.555 21.6631 72.5386 21.7261 72.5386 21.8801ZM65.1594 25.8601L63.36 27.6801L65.18 25.8807C66.8712 24.2089 67.036 24.0401 66.9794 24.0401C66.968 24.0401 66.149 24.8591 65.1594 25.8601ZM72.2776 25.0601L71.76 25.6001L72.3 25.0825C72.597 24.7977 72.84 24.5547 72.84 24.5425C72.84 24.4835 72.7586 24.5585 72.2776 25.0601ZM70.1186 27.3001L69.2 28.2401L70.14 27.3215C71.0132 26.4681 71.1164 26.3601 71.0586 26.3601C71.047 26.3601 70.624 26.7831 70.1186 27.3001ZM67.56 29.9201C67.2322 30.2501 66.982 30.5201 67.004 30.5201C67.026 30.5201 67.3122 30.2501 67.64 29.9201C67.9678 29.5901 68.218 29.3201 68.196 29.3201C68.174 29.3201 67.8878 29.5901 67.56 29.9201ZM64.9582 32.6201L64.32 33.2801L64.98 32.6419C65.593 32.0493 65.6764 31.9601 65.6182 31.9601C65.606 31.9601 65.309 32.2571 64.9582 32.6201ZM56.0396 35.0601L53.52 37.6001L56.06 35.0805C58.4206 32.7391 58.636 32.5201 58.5796 32.5201C58.5682 32.5201 57.4252 33.6631 56.0396 35.0601ZM62.5584 35.1001L61.76 35.9201L62.58 35.1217C63.031 34.6825 63.4 34.3134 63.4 34.3017C63.4 34.2437 63.3002 34.3385 62.5584 35.1001ZM60.0784 37.6601L59.36 38.4001L60.1 37.6817C60.507 37.2867 60.84 36.9537 60.84 36.9417C60.84 36.8837 60.7456 36.9729 60.0784 37.6601ZM57.9174 39.9001L57.44 40.4001L57.94 39.9227C58.215 39.6599 58.44 39.4349 58.44 39.4227C58.44 39.3635 58.361 39.4357 57.9174 39.9001ZM50.2118 40.9601C50.2082 41.0481 50.258 41.1899 50.3226 41.2753C50.3872 41.3609 50.44 41.3951 50.44 41.3513C50.44 41.3077 50.4074 41.2379 50.3678 41.1961C50.328 41.1543 50.2782 41.0481 50.257 40.9601L50.2186 40.8001L50.2118 40.9601ZM43.92 50.2807C43.817 50.3253 43.9026 50.3335 44.16 50.3037C44.38 50.2783 44.575 50.2447 44.5934 50.2289C44.6628 50.1691 44.0728 50.2145 43.92 50.2807ZM43.18 50.4152C43.257 50.4352 43.383 50.4352 43.46 50.4152C43.537 50.3951 43.474 50.3787 43.32 50.3787C43.166 50.3787 43.103 50.3951 43.18 50.4152ZM41.4 50.68C41.2416 50.7309 41.2334 50.7441 41.36 50.7441C41.448 50.7441 41.61 50.7153 41.72 50.68C41.8784 50.6292 41.8866 50.6161 41.76 50.6161C41.672 50.6161 41.51 50.6449 41.4 50.68ZM48.36 50.6841C48.6374 50.8723 48.7956 50.9271 48.6 50.7673C48.49 50.6773 48.364 50.6035 48.32 50.6031C48.276 50.6027 48.294 50.6393 48.36 50.6841ZM54.7656 51.4401C54.7656 51.4841 54.8172 51.6101 54.88 51.7201C54.9428 51.8301 54.9944 51.8841 54.9944 51.8401C54.9944 51.7961 54.9428 51.6701 54.88 51.5601C54.8172 51.4501 54.7656 51.3961 54.7656 51.4401ZM63.4056 52.8001C63.4056 52.8441 63.4572 52.9701 63.52 53.0801C63.5828 53.1901 63.6344 53.2441 63.6344 53.2001C63.6344 53.1561 63.5828 53.0301 63.52 52.9201C63.4572 52.8101 63.4056 52.7561 63.4056 52.8001ZM44 53.2015C44.088 53.2733 44.232 53.3671 44.32 53.4103L44.48 53.4889L44.32 53.3587C44.232 53.2869 44.088 53.1931 44 53.1499L43.84 53.0713L44 53.2015ZM52.6 53.1159C52.6 53.1379 52.708 53.2119 52.84 53.2801C52.972 53.3483 53.08 53.3863 53.08 53.3643C53.08 53.3423 52.972 53.2683 52.84 53.2001C52.708 53.1319 52.6 53.0939 52.6 53.1159ZM53.56 53.6759C53.56 53.6979 53.668 53.7719 53.8 53.8401C53.932 53.9083 54.04 53.9463 54.04 53.9243C54.04 53.9023 53.932 53.8283 53.8 53.7601C53.668 53.6919 53.56 53.6539 53.56 53.6759ZM64.3656 54.8001C64.3656 54.8441 64.4172 54.9701 64.48 55.0801C64.5428 55.1901 64.5944 55.2441 64.5944 55.2001C64.5944 55.1561 64.5428 55.0301 64.48 54.9201C64.4172 54.8101 64.3656 54.7561 64.3656 54.8001ZM56.32 60.7931C56.452 60.9065 56.593 60.9995 56.6334 60.9997C56.7202 61.0001 56.7192 60.9993 56.36 60.7675L56.08 60.5869L56.32 60.7931ZM56.96 61.1931C57.092 61.3065 57.233 61.3995 57.2734 61.3997C57.3602 61.4001 57.3592 61.3993 57 61.1675L56.72 60.9869L56.96 61.1931ZM67.26 62.0153C67.337 62.0353 67.463 62.0353 67.54 62.0153C67.617 61.9951 67.554 61.9787 67.4 61.9787C67.246 61.9787 67.183 61.9951 67.26 62.0153ZM66.3 62.1753C66.377 62.1953 66.503 62.1953 66.58 62.1753C66.657 62.1551 66.594 62.1387 66.44 62.1387C66.286 62.1387 66.223 62.1551 66.3 62.1753Z" fill="#2011A2"/>
<path fill-rule="evenodd" clip-rule="evenodd" d="M36.08 0.611005C34.6176 0.814605 33.7152 0.953405 33.2704 1.0434C33.1324 1.0714 33.0912 1.15581 33.0488 1.49901C33.0202 1.73061 32.9612 2.082 32.9178 2.28C32.8742 2.478 32.7484 3.126 32.6382 3.72C32.5278 4.314 32.3488 5.26801 32.2404 5.84001C32.132 6.412 31.899 7.654 31.7226 8.60001C31.5462 9.546 31.3666 10.5 31.3232 10.72C31.1194 11.7568 31.0014 12.3772 30.8822 13.04C30.811 13.436 30.7174 13.94 30.674 14.16C30.4774 15.1576 30.4244 15.439 30.1984 16.68C30.0662 17.406 29.9254 18.144 29.8854 18.32C29.7928 18.7294 29.6716 19.352 29.5272 20.16C29.3246 21.2946 28.9978 23.0284 28.9064 23.4532C28.7896 23.9972 28.8362 24.1034 29.1726 24.0598C29.4656 24.022 32.559 23.5102 33.2 23.3936C34.4722 23.162 34.4454 23.1864 34.5974 22.12C34.696 21.4282 35.1942 18.1688 35.4046 16.84C35.4498 16.554 35.52 16.086 35.5606 15.8C35.601 15.514 35.6904 14.92 35.759 14.48C35.891 13.6344 36.0796 12.3998 36.199 11.6C36.5376 9.3326 36.5718 9.16 36.6824 9.16C36.7434 9.16 37.8 11.236 37.8 11.3558C37.8 11.3702 37.9828 11.773 38.2062 12.251C38.4296 12.729 38.7048 13.318 38.8174 13.56C38.9302 13.802 39.175 14.324 39.3614 14.72C39.548 15.116 39.818 15.692 39.9614 16C40.105 16.308 40.3652 16.866 40.5398 17.24C40.7144 17.614 40.9478 18.118 41.0586 18.36C41.6632 19.6816 42.1124 20.5858 42.1878 20.6324C42.3792 20.7508 46.76 18.6232 46.76 18.4118C46.76 18.3252 45.0788 14.9236 39.8738 4.4796C38.8212 2.3674 37.96 0.598605 37.96 0.549005C37.96 0.379205 37.679 0.388405 36.08 0.611005ZM70.52 19.0872C69.3034 19.2588 68.543 19.3708 67.84 19.4816C67.322 19.5632 64.7076 19.9232 63.7238 20.0482C63.0886 20.1288 62.6174 20.195 61.24 20.3966C60.4834 20.5072 59.121 20.6964 58.2234 20.8154C57.8126 20.8698 57.754 20.9334 57.2782 21.84C57.0702 22.236 56.766 22.794 56.602 23.08C55.0254 25.8294 55.0494 25.7058 56.1296 25.5264C57.0738 25.3694 58.8098 25.094 59.44 25.001C59.704 24.9622 60.37 24.8564 60.92 24.7662C61.47 24.676 62.28 24.5474 62.72 24.4802C63.16 24.4132 63.718 24.323 63.96 24.2796C65.2626 24.047 67.0166 23.7898 67.053 23.8262C67.1438 23.9172 66.8036 24.2748 62.7544 28.3458C49.2818 41.8906 50.1546 40.9862 50.3472 41.204C50.3842 41.2458 50.4628 41.406 50.5222 41.56C50.5816 41.714 50.7526 42.11 50.9024 42.44C51.0522 42.77 51.2214 43.148 51.2782 43.28C51.335 43.412 51.4576 43.6908 51.551 43.8996C51.6442 44.1084 51.8508 44.5944 52.01 44.9796C52.1692 45.3648 52.4212 45.9436 52.5698 46.2658C52.7184 46.588 52.84 46.866 52.84 46.8834C52.84 46.901 52.9268 47.1054 53.033 47.3376C53.1392 47.57 53.4842 48.3534 53.7994 49.0784C54.1148 49.8036 54.4382 50.5416 54.5182 50.7184C54.598 50.8954 54.7572 51.2642 54.872 51.538C54.9866 51.812 55.1666 52.226 55.272 52.458C55.3774 52.6902 55.5616 53.114 55.681 53.4C56.0132 54.1946 56.202 54.6176 56.3358 54.8672C56.593 55.3468 56.091 55.2176 55 54.5228C54.934 54.4808 54.646 54.3136 54.36 54.1512C54.074 53.9888 53.3 53.5414 52.64 53.1566C49.686 51.435 47.7262 50.3124 47.32 50.1094L46.88 49.8894L45.08 50.1602C43.0356 50.4678 42.3314 50.578 41.76 50.6796C41.54 50.7188 41.1734 50.774 40.9452 50.8022C40.3466 50.8764 40.4084 50.937 42.225 52.0588C45.4596 54.056 48.0988 55.682 48.92 56.183C49.382 56.4648 49.886 56.7764 50.04 56.8754C50.194 56.9744 50.968 57.4524 51.76 57.9376C53.1498 58.789 53.8114 59.1962 57.88 61.7048C58.914 62.3424 59.7838 62.9006 59.8128 62.9452C59.882 63.0514 60.2982 63.0336 61.28 62.882C62.7518 62.6548 64.5588 62.3858 66.74 62.0692C67.9202 61.898 67.895 62.0834 66.9904 60.2216C64.993 56.1102 64.1394 54.3492 63.1602 52.32C62.863 51.704 62.269 50.48 61.8402 49.6C61.4116 48.72 60.8172 47.496 60.5194 46.88C60.2216 46.264 59.6454 45.076 59.239 44.24C58.8324 43.404 58.2554 42.2162 57.9568 41.6006C57.6372 40.9416 57.4378 40.4382 57.4724 40.3766C57.5046 40.319 57.9082 39.8868 58.3694 39.416C58.8304 38.9452 60.3912 37.336 61.8376 35.84C63.284 34.344 65.0282 32.5436 65.7136 31.8392C66.3992 31.1348 67.482 30.0184 68.12 29.3582C68.758 28.6982 69.8544 27.5646 70.5564 26.839C71.2586 26.1136 72.0662 25.2784 72.3512 24.9832L72.8694 24.4464L72.769 23.6632C72.5896 22.2624 72.357 20.6488 72.2776 20.2538C72.235 20.0416 72.2 19.7334 72.2 19.5692C72.2 18.9384 71.9938 18.8792 70.52 19.0872Z" fill="#2011A2"/>
<path d="M87.425 46.225C88.215 46.225 88.88 46.135 89.42 45.955C89.97 45.765 90.415 45.51 90.755 45.19C91.105 44.87 91.355 44.495 91.505 44.065C91.665 43.625 91.745 43.155 91.745 42.655C91.745 41.635 91.395 40.835 90.695 40.255C90.005 39.665 88.91 39.37 87.41 39.37H83.075V46.225H87.425ZM83.075 30.145V36.895H86.585C88.085 36.895 89.205 36.605 89.945 36.025C90.685 35.445 91.055 34.61 91.055 33.52C91.055 32.33 90.705 31.47 90.005 30.94C89.315 30.41 88.23 30.145 86.75 30.145H83.075ZM86.75 27.4C88.13 27.4 89.31 27.535 90.29 27.805C91.27 28.065 92.075 28.44 92.705 28.93C93.335 29.42 93.795 30.02 94.085 30.73C94.385 31.43 94.535 32.22 94.535 33.1C94.535 33.61 94.455 34.105 94.295 34.585C94.145 35.055 93.905 35.5 93.575 35.92C93.255 36.33 92.85 36.7 92.36 37.03C91.87 37.36 91.29 37.635 90.62 37.855C93.68 38.505 95.21 40.13 95.21 42.73C95.21 43.65 95.035 44.495 94.685 45.265C94.345 46.025 93.845 46.685 93.185 47.245C92.535 47.795 91.73 48.225 90.77 48.535C89.81 48.845 88.715 49 87.485 49H79.565V27.4H86.75ZM102.382 33.7V49H99.1566V33.7H102.382ZM102.922 29.08C102.922 29.37 102.862 29.645 102.742 29.905C102.632 30.165 102.477 30.395 102.277 30.595C102.077 30.785 101.842 30.94 101.572 31.06C101.312 31.17 101.032 31.225 100.732 31.225C100.442 31.225 100.167 31.17 99.9066 31.06C99.6566 30.94 99.4366 30.785 99.2466 30.595C99.0566 30.395 98.9016 30.165 98.7816 29.905C98.6716 29.645 98.6166 29.37 98.6166 29.08C98.6166 28.78 98.6716 28.5 98.7816 28.24C98.9016 27.98 99.0566 27.755 99.2466 27.565C99.4366 27.365 99.6566 27.21 99.9066 27.1C100.167 26.98 100.442 26.92 100.732 26.92C101.032 26.92 101.312 26.98 101.572 27.1C101.842 27.21 102.077 27.365 102.277 27.565C102.477 27.755 102.632 27.98 102.742 28.24C102.862 28.5 102.922 28.78 102.922 29.08ZM112.089 49.24C110.819 49.24 109.839 48.885 109.149 48.175C108.469 47.455 108.129 46.445 108.129 45.145V36.235H106.449C106.269 36.235 106.114 36.18 105.984 36.07C105.854 35.95 105.789 35.775 105.789 35.545V34.24L108.264 33.88L108.969 29.455C109.019 29.285 109.104 29.15 109.224 29.05C109.344 28.94 109.504 28.885 109.704 28.885H111.354V33.91H115.599V36.235H111.354V44.92C111.354 45.47 111.489 45.89 111.759 46.18C112.029 46.47 112.389 46.615 112.839 46.615C113.089 46.615 113.304 46.585 113.484 46.525C113.664 46.455 113.819 46.385 113.949 46.315C114.079 46.235 114.189 46.165 114.279 46.105C114.379 46.035 114.474 46 114.564 46C114.744 46 114.889 46.1 114.999 46.3L115.959 47.875C115.459 48.315 114.869 48.655 114.189 48.895C113.509 49.125 112.809 49.24 112.089 49.24ZM129.589 36.7C129.489 36.83 129.394 36.93 129.304 37C129.214 37.07 129.084 37.105 128.914 37.105C128.744 37.105 128.564 37.045 128.374 36.925C128.194 36.805 127.974 36.675 127.714 36.535C127.464 36.385 127.159 36.25 126.799 36.13C126.439 36.01 125.989 35.95 125.449 35.95C124.749 35.95 124.134 36.075 123.604 36.325C123.084 36.575 122.644 36.935 122.284 37.405C121.934 37.865 121.669 38.43 121.489 39.1C121.319 39.76 121.234 40.505 121.234 41.335C121.234 42.195 121.329 42.96 121.519 43.63C121.709 44.3 121.979 44.865 122.329 45.325C122.689 45.785 123.119 46.135 123.619 46.375C124.129 46.615 124.699 46.735 125.329 46.735C125.949 46.735 126.454 46.66 126.844 46.51C127.234 46.36 127.559 46.195 127.819 46.015C128.079 45.835 128.299 45.67 128.479 45.52C128.669 45.37 128.869 45.295 129.079 45.295C129.339 45.295 129.539 45.395 129.679 45.595L130.594 46.78C130.224 47.23 129.814 47.61 129.364 47.92C128.914 48.23 128.439 48.485 127.939 48.685C127.439 48.875 126.919 49.01 126.379 49.09C125.839 49.18 125.294 49.225 124.744 49.225C123.794 49.225 122.904 49.05 122.074 48.7C121.254 48.34 120.534 47.825 119.914 47.155C119.304 46.475 118.819 45.65 118.459 44.68C118.109 43.7 117.934 42.585 117.934 41.335C117.934 40.205 118.094 39.16 118.414 38.2C118.734 37.23 119.199 36.395 119.809 35.695C120.429 34.995 121.194 34.45 122.104 34.06C123.014 33.66 124.064 33.46 125.254 33.46C126.364 33.46 127.339 33.64 128.179 34C129.029 34.36 129.784 34.87 130.444 35.53L129.589 36.7ZM140.289 33.46C141.419 33.46 142.439 33.645 143.349 34.015C144.269 34.385 145.049 34.91 145.689 35.59C146.339 36.27 146.839 37.095 147.189 38.065C147.539 39.035 147.714 40.125 147.714 41.335C147.714 42.545 147.539 43.635 147.189 44.605C146.839 45.575 146.339 46.405 145.689 47.095C145.049 47.775 144.269 48.3 143.349 48.67C142.439 49.04 141.419 49.225 140.289 49.225C139.149 49.225 138.119 49.04 137.199 48.67C136.289 48.3 135.509 47.775 134.859 47.095C134.209 46.405 133.709 45.575 133.359 44.605C133.009 43.635 132.834 42.545 132.834 41.335C132.834 40.125 133.009 39.035 133.359 38.065C133.709 37.095 134.209 36.27 134.859 35.59C135.509 34.91 136.289 34.385 137.199 34.015C138.119 33.645 139.149 33.46 140.289 33.46ZM140.289 46.705C141.669 46.705 142.694 46.245 143.364 45.325C144.044 44.395 144.384 43.07 144.384 41.35C144.384 39.63 144.044 38.305 143.364 37.375C142.694 36.435 141.669 35.965 140.289 35.965C138.889 35.965 137.849 36.435 137.169 37.375C136.489 38.305 136.149 39.63 136.149 41.35C136.149 43.07 136.489 44.395 137.169 45.325C137.849 46.245 138.889 46.705 140.289 46.705ZM154.923 33.7V49H151.698V33.7H154.923ZM155.463 29.08C155.463 29.37 155.403 29.645 155.283 29.905C155.173 30.165 155.018 30.395 154.818 30.595C154.618 30.785 154.383 30.94 154.113 31.06C153.853 31.17 153.573 31.225 153.273 31.225C152.983 31.225 152.708 31.17 152.448 31.06C152.198 30.94 151.978 30.785 151.788 30.595C151.598 30.395 151.443 30.165 151.323 29.905C151.213 29.645 151.158 29.37 151.158 29.08C151.158 28.78 151.213 28.5 151.323 28.24C151.443 27.98 151.598 27.755 151.788 27.565C151.978 27.365 152.198 27.21 152.448 27.1C152.708 26.98 152.983 26.92 153.273 26.92C153.573 26.92 153.853 26.98 154.113 27.1C154.383 27.21 154.618 27.365 154.818 27.565C155.018 27.755 155.173 27.98 155.283 28.24C155.403 28.5 155.463 28.78 155.463 29.08ZM162.74 35.725C163.07 35.385 163.41 35.08 163.76 34.81C164.12 34.53 164.5 34.29 164.9 34.09C165.3 33.89 165.725 33.735 166.175 33.625C166.625 33.515 167.115 33.46 167.645 33.46C168.485 33.46 169.22 33.6 169.85 33.88C170.49 34.16 171.025 34.555 171.455 35.065C171.895 35.575 172.225 36.19 172.445 36.91C172.665 37.62 172.775 38.405 172.775 39.265V49H169.565V39.265C169.565 38.235 169.325 37.435 168.845 36.865C168.375 36.295 167.655 36.01 166.685 36.01C165.965 36.01 165.295 36.175 164.675 36.505C164.065 36.835 163.49 37.285 162.95 37.855V49H159.725V33.7H161.675C162.115 33.7 162.395 33.905 162.515 34.315L162.74 35.725ZM193.945 27.4L185.185 49H182.02L173.26 27.4H176.065C176.375 27.4 176.625 27.48 176.815 27.64C177.005 27.79 177.15 27.98 177.25 28.21L182.815 42.295C183.115 43.085 183.39 43.995 183.64 45.025C183.75 44.515 183.865 44.03 183.985 43.57C184.115 43.11 184.255 42.685 184.405 42.295L189.955 28.21C190.035 28.01 190.175 27.825 190.375 27.655C190.575 27.485 190.825 27.4 191.125 27.4H193.945ZM215.095 27.4V49H213.31C213.04 49 212.81 48.955 212.62 48.865C212.43 48.765 212.25 48.605 212.08 48.385L200.215 33.145C200.245 33.435 200.265 33.725 200.275 34.015C200.295 34.295 200.305 34.555 200.305 34.795V49H197.215V27.4H199.045C199.195 27.4 199.32 27.41 199.42 27.43C199.53 27.44 199.63 27.465 199.72 27.505C199.81 27.545 199.895 27.605 199.975 27.685C200.055 27.765 200.14 27.865 200.23 27.985L212.11 43.24C212.08 42.93 212.055 42.625 212.035 42.325C212.025 42.025 212.02 41.745 212.02 41.485V27.4H215.095Z" fill="#2011A2"/>
</svg>
