<svg width="224" height="160" viewBox="0 0 224 160" fill="none" xmlns="http://www.w3.org/2000/svg">
<path fill-rule="evenodd" clip-rule="evenodd" d="M39.31 43.6553C39.387 43.6753 39.513 43.6753 39.59 43.6553C39.667 43.6351 39.604 43.6187 39.45 43.6187C39.296 43.6187 39.233 43.6351 39.31 43.6553ZM36.7612 44.1143C36.737 44.1771 36.7332 44.3121 36.7528 44.4143C36.7804 44.5595 36.7906 44.5447 36.7992 44.3467C36.805 44.2075 36.855 44.0753 36.91 44.0531C36.9884 44.0215 36.9878 44.0113 36.9074 44.0065C36.8512 44.0029 36.7852 44.0515 36.7612 44.1143ZM68.8112 46.6201C68.7174 46.7411 68.1478 47.3581 67.5454 47.9913C66.943 48.6243 66.396 49.2215 66.33 49.3183C66.264 49.4149 66.012 49.6675 65.77 49.8793C65.528 50.0913 65.132 50.4679 64.89 50.7163C64.648 50.9649 63.8744 51.6883 63.171 52.3241C62.4676 52.9599 61.7836 53.5873 61.651 53.7181C61.5184 53.8491 61.2856 54.0421 61.1334 54.1471C60.9814 54.2519 60.7114 54.4597 60.5334 54.6085C59.2736 55.6635 58.943 55.9285 58.787 56.0083C58.6896 56.0581 58.466 56.2321 58.29 56.3949C58.114 56.5577 57.8926 56.7425 57.798 56.8055C57.3012 57.1367 55.624 58.3177 55.3016 58.5635C55.0972 58.7193 54.786 58.9331 54.61 59.0383C54.434 59.1435 53.948 59.4529 53.53 59.7255C53.112 59.9981 52.619 60.2971 52.4346 60.3899C52.2502 60.4827 51.9622 60.6525 51.7946 60.7673C51.627 60.8821 51.418 61.0091 51.33 61.0493C51.242 61.0895 51.062 61.1913 50.93 61.2755C50.6152 61.4761 50.6258 61.4779 50.5008 61.1955C50.4412 61.0609 50.3718 60.9715 50.3466 60.9969C50.3214 61.0221 50.3432 61.0853 50.3954 61.1375C50.6162 61.3583 50.4888 61.5073 49.75 61.8909C48.597 62.4895 47.034 63.2511 46.48 63.4843L45.9766 63.6963L45.8214 63.5081L45.6662 63.3201L45.7174 63.5309C45.7828 63.8011 45.7348 63.8361 44.81 64.1957C44.392 64.3583 43.7644 64.6033 43.4156 64.7405C43.0666 64.8775 42.4006 65.0923 41.9356 65.2175C40.3456 65.6457 39.0102 65.9811 38.67 66.0377L38.33 66.0941L38.3222 65.7471L38.3142 65.4001L38.2186 65.7601C38.0962 66.2207 38.2276 66.1821 34.85 66.7479C32.3472 67.1671 32.466 67.1927 32.6762 66.2801C32.7256 66.0657 32.7192 66.0701 32.6168 66.3201C32.5538 66.4741 32.4994 66.7179 32.496 66.8619C32.4868 67.2575 31.8266 67.3659 27.97 67.6043C27.354 67.6423 26.256 67.7107 25.53 67.7561C22.3902 67.9525 15.5616 67.7661 12.77 67.4077C12.242 67.3399 11.36 67.2467 10.81 67.2003C10.26 67.1541 9.41397 67.0467 8.92997 66.9617C8.44597 66.8769 7.52797 66.7317 6.88997 66.6395C6.25197 66.5471 5.46217 66.4015 5.13497 66.3159C3.98417 66.0147 3.68617 66.1677 4.40997 66.6877C4.62997 66.8457 4.81017 66.9987 4.81017 67.0277C4.81037 67.0565 5.03537 67.2601 5.30997 67.4801C5.76977 67.8485 6.18317 68.2057 7.24997 69.1567C7.68917 69.5483 8.54577 70.2881 9.31477 70.9399C9.58717 71.1709 9.98997 71.5203 10.21 71.7165C10.43 71.9127 10.772 72.2085 10.97 72.3737C11.168 72.5391 11.5664 72.8917 11.8552 73.1573C12.144 73.4227 12.7866 73.9821 13.2834 74.4001C13.7802 74.8181 14.2638 75.2391 14.3584 75.3357C14.4528 75.4323 14.662 75.6123 14.8234 75.7357C15.2588 76.0689 16.4472 77.0837 17.89 78.3551C18.594 78.9753 19.296 79.5774 19.45 79.6931C19.604 79.8089 19.856 80.0195 20.01 80.1613C20.164 80.3031 20.506 80.5995 20.77 80.8199C21.3868 81.3351 22.4244 82.2357 24.019 83.6401C25.6808 85.1037 26.6852 85.9701 27.9596 87.0401C29.0596 87.9635 29.0568 87.9464 28.3648 89.5917C28.076 90.2783 27.7498 91.0561 27.6402 91.3201C27.5304 91.5841 27.3656 91.9801 27.2736 92.2001C27.1818 92.4201 27.0542 92.7261 26.9904 92.8801C26.9264 93.034 26.8078 93.3041 26.7268 93.4801C26.6458 93.6561 26.5034 93.9981 26.4106 94.2401C26.3178 94.4821 26.118 94.9773 25.9668 95.3405C25.8156 95.7037 25.5626 96.3157 25.4046 96.7005C25.151 97.3179 24.754 98.2565 24.0084 100C23.3922 101.441 23.13 102.086 23.13 102.162C23.13 102.208 23.0356 102.431 22.9204 102.659C22.7318 103.031 22.5552 103.445 21.648 105.64C21.5026 105.992 21.1792 106.766 20.9296 107.36C20.6798 107.954 20.4104 108.62 20.3306 108.84C20.1622 109.305 19.9092 109.905 19.6896 110.36C19.5604 110.628 19.2642 111.325 18.9762 112.04C18.705 112.713 18.095 114.162 17.8394 114.74C17.6692 115.125 17.53 115.477 17.53 115.523C17.53 115.568 17.4438 115.776 17.3382 115.984C17.156 116.343 17.1002 116.549 17.1208 116.785C17.1442 117.053 17.6238 116.649 19.5068 114.771C20.6162 113.665 21.5616 112.724 21.6076 112.68C22.044 112.264 28.4686 105.677 30.53 103.533C31.058 102.983 31.67 102.347 31.89 102.118C33.947 99.9813 35.256 98.6013 35.6066 98.2001C35.8374 97.9361 36.2474 97.5003 36.518 97.2319C36.7886 96.9633 37.244 96.4843 37.53 96.1675C37.816 95.8507 38.266 95.3673 38.53 95.0935C38.794 94.8195 39.5452 94.0025 40.1992 93.2779C40.8532 92.5531 41.7212 91.6001 42.1282 91.1601C42.535 90.7201 43.062 90.1369 43.299 89.8639C43.536 89.5909 44.36 88.6607 45.13 87.7967C47.2434 85.4251 49.8932 82.2569 50.636 81.2136C50.9018 80.8405 51.4224 80.1387 52.0942 79.2485C52.8612 78.2317 54.8372 75.3697 55.331 74.5601C55.4248 74.4061 55.6782 74.0101 55.8942 73.6801C56.2994 73.0603 56.7178 72.3699 57.2754 71.4001C58.2206 69.7567 58.7228 68.9857 58.9468 68.8341C59.1454 68.6997 59.17 68.6539 59.0754 68.5941C58.9586 68.5201 59.1332 68.1707 60.332 66.0801C60.496 65.7941 60.8002 65.2361 61.0082 64.8401C61.4784 63.9441 61.5566 63.8561 61.9184 63.8179L62.21 63.7869L61.91 63.7735C61.5394 63.7569 61.4976 63.9131 62.2584 62.4701C62.615 61.7935 63.192 60.6461 63.5406 59.9201C63.8892 59.1941 64.2476 58.4741 64.3372 58.3201C64.4268 58.1661 64.571 57.8781 64.658 57.6801C64.745 57.4821 64.8854 57.1761 64.9702 57.0001C65.4512 56.0021 66.6196 53.3929 66.8652 52.7683C67.0228 52.3679 67.3058 51.7341 67.494 51.3601C67.6824 50.9861 67.8792 50.5181 67.9316 50.3201C67.984 50.1221 68.0844 49.8521 68.155 49.7201C68.3704 49.3167 68.6432 48.6475 69.2564 47.0185C69.4912 46.3947 69.1928 46.1275 68.8112 46.6201ZM43.5356 47.3201C43.5356 47.3641 43.5872 47.4901 43.65 47.6001C43.7128 47.7101 43.7644 47.7641 43.7644 47.7201C43.7644 47.6761 43.7128 47.5501 43.65 47.4401C43.5872 47.3301 43.5356 47.2761 43.5356 47.3201ZM40.439 52.2805C40.5054 52.3469 40.5832 52.4755 40.612 52.5667C40.641 52.6577 40.682 52.7147 40.7032 52.6935C40.7632 52.6335 40.4962 52.1601 40.4022 52.1601C40.3562 52.1601 40.3728 52.2143 40.439 52.2805ZM41.2956 53.9601C41.2956 54.0041 41.3472 54.1301 41.41 54.2401C41.4728 54.3501 41.5244 54.4041 41.5244 54.3601C41.5244 54.3161 41.4728 54.1901 41.41 54.0801C41.3472 53.9701 41.2956 53.9161 41.2956 53.9601ZM34.7744 54.7645C34.7444 54.9251 34.7356 55.0725 34.7552 55.0921C34.7748 55.1115 34.8154 54.9963 34.8456 54.8357C34.8756 54.6751 34.8844 54.5277 34.8648 54.5081C34.8452 54.4887 34.8046 54.6039 34.7744 54.7645ZM34.37 56.9601C34.3396 57.0983 34.3314 57.2283 34.3518 57.2485C34.3722 57.2689 34.4118 57.1707 34.44 57.0301C34.5066 56.6967 34.442 56.6321 34.37 56.9601ZM39.421 57.8911C39.3926 58.0973 39.3848 58.2817 39.4038 58.3005C39.4226 58.3193 39.463 58.1679 39.4936 57.9637C39.5242 57.7597 39.532 57.5753 39.5108 57.5543C39.4896 57.5331 39.4492 57.6847 39.421 57.8911ZM49.89 60.1601C49.9582 60.2921 50.0322 60.4001 50.0542 60.4001C50.0762 60.4001 50.0382 60.2921 49.97 60.1601C49.9018 60.0281 49.8278 59.9201 49.8058 59.9201C49.7838 59.9201 49.8218 60.0281 49.89 60.1601ZM75.67 62.0025C75.769 62.0423 75.85 62.1181 75.85 62.1709C75.85 62.2237 75.8732 62.2437 75.9014 62.2153C75.9794 62.1373 75.7682 61.9195 75.6202 61.9251C75.532 61.9287 75.5482 61.9537 75.67 62.0025ZM74.35 62.0553C74.427 62.0753 74.553 62.0753 74.63 62.0553C74.707 62.0351 74.644 62.0187 74.49 62.0187C74.336 62.0187 74.273 62.0351 74.35 62.0553ZM73.23 62.2153C73.307 62.2353 73.433 62.2353 73.51 62.2153C73.587 62.1951 73.524 62.1787 73.37 62.1787C73.216 62.1787 73.153 62.1951 73.23 62.2153ZM38.6686 62.9601C38.6686 63.1141 38.685 63.1771 38.7052 63.1001C38.7252 63.0231 38.7252 62.8971 38.7052 62.8201C38.685 62.7431 38.6686 62.8061 38.6686 62.9601ZM68.59 62.8553C68.667 62.8753 68.793 62.8753 68.87 62.8553C68.947 62.8351 68.884 62.8187 68.73 62.8187C68.576 62.8187 68.513 62.8351 68.59 62.8553ZM67.47 63.0153C67.547 63.0353 67.673 63.0353 67.75 63.0153C67.827 62.9951 67.764 62.9787 67.61 62.9787C67.456 62.9787 67.393 62.9951 67.47 63.0153ZM76.1102 63.8001C76.111 63.9761 76.1274 64.0387 76.1466 63.9391C76.1658 63.8397 76.165 63.6957 76.145 63.6191C76.125 63.5427 76.1092 63.6241 76.1102 63.8001ZM62.83 63.6553C62.907 63.6753 63.033 63.6753 63.11 63.6553C63.187 63.6351 63.124 63.6187 62.97 63.6187C62.816 63.6187 62.753 63.6351 62.83 63.6553ZM76.2686 64.8801C76.2686 65.0341 76.285 65.0971 76.3052 65.0201C76.3252 64.9431 76.3252 64.8171 76.3052 64.7401C76.285 64.6631 76.2686 64.7261 76.2686 64.8801ZM68.8894 68.8601L67.09 70.6801L68.91 68.8807C70.6012 67.2089 70.766 67.0401 70.7094 67.0401C70.698 67.0401 69.879 67.8591 68.8894 68.8601ZM76.0076 68.0601L75.49 68.6001L76.03 68.0825C76.327 67.7977 76.57 67.5547 76.57 67.5425C76.57 67.4835 76.4886 67.5585 76.0076 68.0601ZM73.8486 70.3001L72.93 71.2401L73.87 70.3215C74.7432 69.4681 74.8464 69.3601 74.7886 69.3601C74.777 69.3601 74.354 69.7831 73.8486 70.3001ZM71.29 72.9201C70.9622 73.2501 70.712 73.5201 70.734 73.5201C70.756 73.5201 71.0422 73.2501 71.37 72.9201C71.6978 72.5901 71.948 72.3201 71.926 72.3201C71.904 72.3201 71.6178 72.5901 71.29 72.9201ZM68.6882 75.6201L68.05 76.2801L68.71 75.6419C69.323 75.0493 69.4064 74.9601 69.3482 74.9601C69.336 74.9601 69.039 75.2571 68.6882 75.6201ZM59.7696 78.0601L57.25 80.6001L59.79 78.0805C62.1506 75.7391 62.366 75.5201 62.3096 75.5201C62.2982 75.5201 61.1552 76.6631 59.7696 78.0601ZM66.2884 78.1001L65.49 78.9201L66.31 78.1217C66.761 77.6825 67.13 77.3134 67.13 77.3017C67.13 77.2437 67.0302 77.3385 66.2884 78.1001ZM63.8084 80.6601L63.09 81.4001L63.83 80.6817C64.237 80.2867 64.57 79.9537 64.57 79.9417C64.57 79.8837 64.4756 79.9729 63.8084 80.6601ZM61.6474 82.9001L61.17 83.4001L61.67 82.9227C61.945 82.6599 62.17 82.4349 62.17 82.4227C62.17 82.3635 62.091 82.4357 61.6474 82.9001ZM53.9418 83.9601C53.9382 84.0481 53.988 84.1899 54.0526 84.2753C54.1172 84.3609 54.17 84.3951 54.17 84.3513C54.17 84.3077 54.1374 84.2379 54.0978 84.1961C54.058 84.1543 54.0082 84.0481 53.987 83.9601L53.9486 83.8001L53.9418 83.9601ZM47.65 93.2807C47.547 93.3253 47.6326 93.3335 47.89 93.3037C48.11 93.2783 48.305 93.2447 48.3234 93.2289C48.3928 93.1691 47.8028 93.2145 47.65 93.2807ZM46.91 93.4152C46.987 93.4352 47.113 93.4352 47.19 93.4152C47.267 93.3951 47.204 93.3787 47.05 93.3787C46.896 93.3787 46.833 93.3951 46.91 93.4152ZM45.13 93.68C44.9716 93.7309 44.9634 93.7441 45.09 93.7441C45.178 93.7441 45.34 93.7153 45.45 93.68C45.6084 93.6292 45.6166 93.6161 45.49 93.6161C45.402 93.6161 45.24 93.6449 45.13 93.68ZM52.09 93.6841C52.3674 93.8723 52.5256 93.9271 52.33 93.7673C52.22 93.6773 52.094 93.6035 52.05 93.6031C52.006 93.6027 52.024 93.6393 52.09 93.6841ZM58.4956 94.4401C58.4956 94.4841 58.5472 94.6101 58.61 94.7201C58.6728 94.8301 58.7244 94.8841 58.7244 94.8401C58.7244 94.7961 58.6728 94.6701 58.61 94.5601C58.5472 94.4501 58.4956 94.3961 58.4956 94.4401ZM67.1356 95.8001C67.1356 95.8441 67.1872 95.9701 67.25 96.0801C67.3128 96.1901 67.3644 96.2441 67.3644 96.2001C67.3644 96.1561 67.3128 96.0301 67.25 95.9201C67.1872 95.8101 67.1356 95.7561 67.1356 95.8001ZM47.73 96.2015C47.818 96.2733 47.962 96.3671 48.05 96.4103L48.21 96.4889L48.05 96.3587C47.962 96.2869 47.818 96.1931 47.73 96.1499L47.57 96.0713L47.73 96.2015ZM56.33 96.1159C56.33 96.1379 56.438 96.2119 56.57 96.2801C56.702 96.3483 56.81 96.3863 56.81 96.3643C56.81 96.3423 56.702 96.2683 56.57 96.2001C56.438 96.1319 56.33 96.0939 56.33 96.1159ZM57.29 96.6759C57.29 96.6979 57.398 96.7719 57.53 96.8401C57.662 96.9083 57.77 96.9463 57.77 96.9243C57.77 96.9023 57.662 96.8283 57.53 96.7601C57.398 96.6919 57.29 96.6539 57.29 96.6759ZM68.0956 97.8001C68.0956 97.8441 68.1472 97.9701 68.21 98.0801C68.2728 98.1901 68.3244 98.2441 68.3244 98.2001C68.3244 98.1561 68.2728 98.0301 68.21 97.9201C68.1472 97.8101 68.0956 97.7561 68.0956 97.8001ZM60.05 103.793C60.182 103.906 60.323 103.999 60.3634 104C60.4502 104 60.4492 103.999 60.09 103.767L59.81 103.587L60.05 103.793ZM60.69 104.193C60.822 104.306 60.963 104.399 61.0034 104.4C61.0902 104.4 61.0892 104.399 60.73 104.167L60.45 103.987L60.69 104.193ZM70.99 105.015C71.067 105.035 71.193 105.035 71.27 105.015C71.347 104.995 71.284 104.979 71.13 104.979C70.976 104.979 70.913 104.995 70.99 105.015ZM70.03 105.175C70.107 105.195 70.233 105.195 70.31 105.175C70.387 105.155 70.324 105.139 70.17 105.139C70.016 105.139 69.953 105.155 70.03 105.175Z" fill="#2011A2"/>
<path fill-rule="evenodd" clip-rule="evenodd" d="M39.8099 43.611C38.3475 43.8146 37.4451 43.9534 37.0003 44.0434C36.8623 44.0714 36.8211 44.1558 36.7787 44.499C36.7501 44.7306 36.6911 45.082 36.6477 45.28C36.6041 45.478 36.4783 46.126 36.3681 46.72C36.2577 47.314 36.0787 48.268 35.9703 48.84C35.8619 49.412 35.6289 50.654 35.4525 51.6C35.2761 52.546 35.0965 53.5 35.0531 53.72C34.8493 54.7568 34.7313 55.3772 34.6121 56.04C34.5409 56.436 34.4473 56.94 34.4039 57.16C34.2073 58.1576 34.1543 58.439 33.9283 59.68C33.7961 60.406 33.6553 61.144 33.6153 61.32C33.5227 61.7294 33.4015 62.352 33.2571 63.16C33.0545 64.2946 32.7277 66.0284 32.6363 66.4532C32.5195 66.9972 32.5661 67.1034 32.9025 67.0598C33.1955 67.022 36.2889 66.5102 36.9299 66.3936C38.2021 66.162 38.1753 66.1864 38.3273 65.12C38.4259 64.4282 38.9241 61.1688 39.1345 59.84C39.1797 59.554 39.2499 59.086 39.2905 58.8C39.3309 58.514 39.4203 57.92 39.4889 57.48C39.6209 56.6344 39.8095 55.3998 39.9289 54.6C40.2675 52.3326 40.3017 52.16 40.4123 52.16C40.4733 52.16 41.5299 54.236 41.5299 54.3558C41.5299 54.3702 41.7127 54.773 41.9361 55.251C42.1595 55.729 42.4347 56.318 42.5473 56.56C42.6601 56.802 42.9049 57.324 43.0913 57.72C43.2779 58.116 43.5479 58.692 43.6913 59C43.8349 59.308 44.0951 59.866 44.2697 60.24C44.4443 60.614 44.6777 61.118 44.7885 61.36C45.3931 62.6816 45.8423 63.5858 45.9177 63.6324C46.1091 63.7508 50.4899 61.6232 50.4899 61.4118C50.4899 61.3252 48.8087 57.9236 43.6037 47.4796C42.5511 45.3674 41.6899 43.5986 41.6899 43.549C41.6899 43.3792 41.4089 43.3884 39.8099 43.611ZM74.2499 62.0872C73.0333 62.2588 72.2729 62.3708 71.5699 62.4816C71.0519 62.5632 68.4375 62.9232 67.4537 63.0482C66.8185 63.1288 66.3473 63.195 64.9699 63.3966C64.2133 63.5072 62.8509 63.6964 61.9533 63.8154C61.5425 63.8698 61.4839 63.9334 61.0081 64.84C60.8001 65.236 60.4959 65.794 60.3319 66.08C58.7553 68.8294 58.7793 68.7058 59.8595 68.5264C60.8037 68.3694 62.5397 68.094 63.1699 68.001C63.4339 67.9622 64.0999 67.8564 64.6499 67.7662C65.1999 67.676 66.0099 67.5474 66.4499 67.4802C66.8899 67.4132 67.4479 67.323 67.6899 67.2796C68.9925 67.047 70.7465 66.7898 70.7829 66.8262C70.8737 66.9172 70.5335 67.2748 66.4843 71.3458C53.0117 84.8906 53.8845 83.9862 54.0771 84.204C54.1141 84.2458 54.1927 84.406 54.2521 84.56C54.3115 84.714 54.4825 85.11 54.6323 85.44C54.7821 85.77 54.9513 86.148 55.0081 86.28C55.0649 86.412 55.1875 86.6908 55.2809 86.8996C55.3741 87.1084 55.5807 87.5944 55.7399 87.9796C55.8991 88.3648 56.1511 88.9436 56.2997 89.2658C56.4483 89.588 56.5699 89.866 56.5699 89.8834C56.5699 89.901 56.6567 90.1054 56.7629 90.3376C56.8691 90.57 57.2141 91.3534 57.5293 92.0784C57.8447 92.8036 58.1681 93.5416 58.2481 93.7184C58.3279 93.8954 58.4871 94.2642 58.6019 94.538C58.7165 94.812 58.8965 95.226 59.0019 95.458C59.1073 95.6902 59.2915 96.114 59.4109 96.4C59.7431 97.1946 59.9319 97.6176 60.0657 97.8672C60.3229 98.3468 59.8209 98.2176 58.7299 97.5228C58.6639 97.4808 58.3759 97.3136 58.0899 97.1512C57.8039 96.9888 57.0299 96.5414 56.3699 96.1566C53.4159 94.435 51.4561 93.3124 51.0499 93.1094L50.6099 92.8894L48.8099 93.1602C46.7655 93.4678 46.0613 93.578 45.4899 93.6796C45.2699 93.7188 44.9033 93.774 44.6751 93.8022C44.0765 93.8764 44.1383 93.937 45.9549 95.0588C49.1895 97.056 51.8287 98.682 52.6499 99.183C53.1119 99.4648 53.6159 99.7764 53.7699 99.8754C53.9239 99.9744 54.6979 100.452 55.4899 100.938C56.8797 101.789 57.5413 102.196 61.6099 104.705C62.6439 105.342 63.5137 105.901 63.5427 105.945C63.6119 106.051 64.0281 106.034 65.0099 105.882C66.4817 105.655 68.2887 105.386 70.4699 105.069C71.6501 104.898 71.6249 105.083 70.7203 103.222C68.7229 99.1102 67.8693 97.3492 66.8901 95.32C66.5929 94.704 65.9989 93.48 65.5701 92.6C65.1415 91.72 64.5471 90.496 64.2493 89.88C63.9515 89.264 63.3753 88.076 62.9689 87.24C62.5623 86.404 61.9853 85.2162 61.6867 84.6006C61.3671 83.9416 61.1677 83.4382 61.2023 83.3766C61.2345 83.319 61.6381 82.8868 62.0993 82.416C62.5603 81.9452 64.1211 80.336 65.5675 78.84C67.0139 77.344 68.7581 75.5436 69.4435 74.8392C70.1291 74.1348 71.2119 73.0184 71.8499 72.3582C72.4879 71.6982 73.5843 70.5646 74.2863 69.839C74.9885 69.1136 75.7961 68.2784 76.0811 67.9832L76.5993 67.4464L76.4989 66.6632C76.3195 65.2624 76.0869 63.6488 76.0075 63.2538C75.9649 63.0416 75.9299 62.7334 75.9299 62.5692C75.9299 61.9384 75.7237 61.8792 74.2499 62.0872Z" fill="#2011A2"/>
<path d="M91.155 89.225C91.945 89.225 92.61 89.135 93.15 88.955C93.7 88.765 94.145 88.51 94.485 88.19C94.835 87.87 95.085 87.495 95.235 87.065C95.395 86.625 95.475 86.155 95.475 85.655C95.475 84.635 95.125 83.835 94.425 83.255C93.735 82.665 92.64 82.37 91.14 82.37H86.805V89.225H91.155ZM86.805 73.145V79.895H90.315C91.815 79.895 92.935 79.605 93.675 79.025C94.415 78.445 94.785 77.61 94.785 76.52C94.785 75.33 94.435 74.47 93.735 73.94C93.045 73.41 91.96 73.145 90.48 73.145H86.805ZM90.48 70.4C91.86 70.4 93.04 70.535 94.02 70.805C95 71.065 95.805 71.44 96.435 71.93C97.065 72.42 97.525 73.02 97.815 73.73C98.115 74.43 98.265 75.22 98.265 76.1C98.265 76.61 98.185 77.105 98.025 77.585C97.875 78.055 97.635 78.5 97.305 78.92C96.985 79.33 96.58 79.7 96.09 80.03C95.6 80.36 95.02 80.635 94.35 80.855C97.41 81.505 98.94 83.13 98.94 85.73C98.94 86.65 98.765 87.495 98.415 88.265C98.075 89.025 97.575 89.685 96.915 90.245C96.265 90.795 95.46 91.225 94.5 91.535C93.54 91.845 92.445 92 91.215 92H83.295V70.4H90.48ZM106.112 76.7V92H102.887V76.7H106.112ZM106.652 72.08C106.652 72.37 106.592 72.645 106.472 72.905C106.362 73.165 106.207 73.395 106.007 73.595C105.807 73.785 105.572 73.94 105.302 74.06C105.042 74.17 104.762 74.225 104.462 74.225C104.172 74.225 103.897 74.17 103.637 74.06C103.387 73.94 103.167 73.785 102.977 73.595C102.787 73.395 102.632 73.165 102.512 72.905C102.402 72.645 102.347 72.37 102.347 72.08C102.347 71.78 102.402 71.5 102.512 71.24C102.632 70.98 102.787 70.755 102.977 70.565C103.167 70.365 103.387 70.21 103.637 70.1C103.897 69.98 104.172 69.92 104.462 69.92C104.762 69.92 105.042 69.98 105.302 70.1C105.572 70.21 105.807 70.365 106.007 70.565C106.207 70.755 106.362 70.98 106.472 71.24C106.592 71.5 106.652 71.78 106.652 72.08ZM115.819 92.24C114.549 92.24 113.569 91.885 112.879 91.175C112.199 90.455 111.859 89.445 111.859 88.145V79.235H110.179C109.999 79.235 109.844 79.18 109.714 79.07C109.584 78.95 109.519 78.775 109.519 78.545V77.24L111.994 76.88L112.699 72.455C112.749 72.285 112.834 72.15 112.954 72.05C113.074 71.94 113.234 71.885 113.434 71.885H115.084V76.91H119.329V79.235H115.084V87.92C115.084 88.47 115.219 88.89 115.489 89.18C115.759 89.47 116.119 89.615 116.569 89.615C116.819 89.615 117.034 89.585 117.214 89.525C117.394 89.455 117.549 89.385 117.679 89.315C117.809 89.235 117.919 89.165 118.009 89.105C118.109 89.035 118.204 89 118.294 89C118.474 89 118.619 89.1 118.729 89.3L119.689 90.875C119.189 91.315 118.599 91.655 117.919 91.895C117.239 92.125 116.539 92.24 115.819 92.24ZM133.319 79.7C133.219 79.83 133.124 79.93 133.034 80C132.944 80.07 132.814 80.105 132.644 80.105C132.474 80.105 132.294 80.045 132.104 79.925C131.924 79.805 131.704 79.675 131.444 79.535C131.194 79.385 130.889 79.25 130.529 79.13C130.169 79.01 129.719 78.95 129.179 78.95C128.479 78.95 127.864 79.075 127.334 79.325C126.814 79.575 126.374 79.935 126.014 80.405C125.664 80.865 125.399 81.43 125.219 82.1C125.049 82.76 124.964 83.505 124.964 84.335C124.964 85.195 125.059 85.96 125.249 86.63C125.439 87.3 125.709 87.865 126.059 88.325C126.419 88.785 126.849 89.135 127.349 89.375C127.859 89.615 128.429 89.735 129.059 89.735C129.679 89.735 130.184 89.66 130.574 89.51C130.964 89.36 131.289 89.195 131.549 89.015C131.809 88.835 132.029 88.67 132.209 88.52C132.399 88.37 132.599 88.295 132.809 88.295C133.069 88.295 133.269 88.395 133.409 88.595L134.324 89.78C133.954 90.23 133.544 90.61 133.094 90.92C132.644 91.23 132.169 91.485 131.669 91.685C131.169 91.875 130.649 92.01 130.109 92.09C129.569 92.18 129.024 92.225 128.474 92.225C127.524 92.225 126.634 92.05 125.804 91.7C124.984 91.34 124.264 90.825 123.644 90.155C123.034 89.475 122.549 88.65 122.189 87.68C121.839 86.7 121.664 85.585 121.664 84.335C121.664 83.205 121.824 82.16 122.144 81.2C122.464 80.23 122.929 79.395 123.539 78.695C124.159 77.995 124.924 77.45 125.834 77.06C126.744 76.66 127.794 76.46 128.984 76.46C130.094 76.46 131.069 76.64 131.909 77C132.759 77.36 133.514 77.87 134.174 78.53L133.319 79.7ZM144.019 76.46C145.149 76.46 146.169 76.645 147.079 77.015C147.999 77.385 148.779 77.91 149.419 78.59C150.069 79.27 150.569 80.095 150.919 81.065C151.269 82.035 151.444 83.125 151.444 84.335C151.444 85.545 151.269 86.635 150.919 87.605C150.569 88.575 150.069 89.405 149.419 90.095C148.779 90.775 147.999 91.3 147.079 91.67C146.169 92.04 145.149 92.225 144.019 92.225C142.879 92.225 141.849 92.04 140.929 91.67C140.019 91.3 139.239 90.775 138.589 90.095C137.939 89.405 137.439 88.575 137.089 87.605C136.739 86.635 136.564 85.545 136.564 84.335C136.564 83.125 136.739 82.035 137.089 81.065C137.439 80.095 137.939 79.27 138.589 78.59C139.239 77.91 140.019 77.385 140.929 77.015C141.849 76.645 142.879 76.46 144.019 76.46ZM144.019 89.705C145.399 89.705 146.424 89.245 147.094 88.325C147.774 87.395 148.114 86.07 148.114 84.35C148.114 82.63 147.774 81.305 147.094 80.375C146.424 79.435 145.399 78.965 144.019 78.965C142.619 78.965 141.579 79.435 140.899 80.375C140.219 81.305 139.879 82.63 139.879 84.35C139.879 86.07 140.219 87.395 140.899 88.325C141.579 89.245 142.619 89.705 144.019 89.705ZM158.653 76.7V92H155.428V76.7H158.653ZM159.193 72.08C159.193 72.37 159.133 72.645 159.013 72.905C158.903 73.165 158.748 73.395 158.548 73.595C158.348 73.785 158.113 73.94 157.843 74.06C157.583 74.17 157.303 74.225 157.003 74.225C156.713 74.225 156.438 74.17 156.178 74.06C155.928 73.94 155.708 73.785 155.518 73.595C155.328 73.395 155.173 73.165 155.053 72.905C154.943 72.645 154.888 72.37 154.888 72.08C154.888 71.78 154.943 71.5 155.053 71.24C155.173 70.98 155.328 70.755 155.518 70.565C155.708 70.365 155.928 70.21 156.178 70.1C156.438 69.98 156.713 69.92 157.003 69.92C157.303 69.92 157.583 69.98 157.843 70.1C158.113 70.21 158.348 70.365 158.548 70.565C158.748 70.755 158.903 70.98 159.013 71.24C159.133 71.5 159.193 71.78 159.193 72.08ZM166.47 78.725C166.8 78.385 167.14 78.08 167.49 77.81C167.85 77.53 168.23 77.29 168.63 77.09C169.03 76.89 169.455 76.735 169.905 76.625C170.355 76.515 170.845 76.46 171.375 76.46C172.215 76.46 172.95 76.6 173.58 76.88C174.22 77.16 174.755 77.555 175.185 78.065C175.625 78.575 175.955 79.19 176.175 79.91C176.395 80.62 176.505 81.405 176.505 82.265V92H173.295V82.265C173.295 81.235 173.055 80.435 172.575 79.865C172.105 79.295 171.385 79.01 170.415 79.01C169.695 79.01 169.025 79.175 168.405 79.505C167.795 79.835 167.22 80.285 166.68 80.855V92H163.455V76.7H165.405C165.845 76.7 166.125 76.905 166.245 77.315L166.47 78.725ZM197.675 70.4L188.915 92H185.75L176.99 70.4H179.795C180.105 70.4 180.355 70.48 180.545 70.64C180.735 70.79 180.88 70.98 180.98 71.21L186.545 85.295C186.845 86.085 187.12 86.995 187.37 88.025C187.48 87.515 187.595 87.03 187.715 86.57C187.845 86.11 187.985 85.685 188.135 85.295L193.685 71.21C193.765 71.01 193.905 70.825 194.105 70.655C194.305 70.485 194.555 70.4 194.855 70.4H197.675ZM218.825 70.4V92H217.04C216.77 92 216.54 91.955 216.35 91.865C216.16 91.765 215.98 91.605 215.81 91.385L203.945 76.145C203.975 76.435 203.995 76.725 204.005 77.015C204.025 77.295 204.035 77.555 204.035 77.795V92H200.945V70.4H202.775C202.925 70.4 203.05 70.41 203.15 70.43C203.26 70.44 203.36 70.465 203.45 70.505C203.54 70.545 203.625 70.605 203.705 70.685C203.785 70.765 203.87 70.865 203.96 70.985L215.84 86.24C215.81 85.93 215.785 85.625 215.765 85.325C215.755 85.025 215.75 84.745 215.75 84.485V70.4H218.825Z" fill="#2011A2"/>
</svg>
