<svg width="68" height="74" viewBox="0 0 68 74" fill="none" xmlns="http://www.w3.org/2000/svg">
<path d="M18.5701 2.98022V14.7803C18.5701 15.4103 18.34 15.9703 17.98 16.3903C17.62 16.8003 17.1101 17.0602 16.5601 17.0602C15.4501 17.0602 14.55 16.0402 14.55 14.7902V2.99023C14.55 1.74023 15.4501 0.720215 16.5601 0.720215C17.6701 0.720215 18.5701 1.74023 18.5701 2.99023V2.98022Z" fill="url(#paint0_linear_40_33)"/>
<path d="M53.11 2.98022V14.7803C53.11 15.4103 52.8801 15.9703 52.5201 16.3903C52.1601 16.8003 51.65 17.0602 51.1 17.0602C49.99 17.0602 49.0901 16.0402 49.0901 14.7902V2.99023C49.0901 1.74023 49.99 0.720215 51.1 0.720215C52.21 0.720215 53.11 1.74023 53.11 2.99023V2.98022Z" fill="url(#paint1_linear_40_33)"/>
<path d="M64.5001 6.18018H54.5601V14.7702C54.5601 17.7002 50.8901 19.7902 47.9001 16.6802C47.7401 16.5102 47.6501 16.2802 47.6501 16.0402V6.17017H20.04V14.7602C20.04 17.6902 16.3701 19.7802 13.3801 16.6702C13.2201 16.5002 13.1301 16.2702 13.1301 16.0302V6.16016H3.19006C1.48006 6.16016 0.0900879 7.55019 0.0900879 9.26019V70.5602C0.0900879 72.2702 1.48006 73.6602 3.19006 73.6602H64.4901C66.2001 73.6602 67.5901 72.2702 67.5901 70.5602V9.26019C67.5901 7.55019 66.2001 6.16016 64.4901 6.16016L64.5001 6.18018ZM61.98 65.5002C61.98 66.9602 60.7901 68.1502 59.3301 68.1502H8.37006C6.91006 68.1502 5.72003 66.9602 5.72003 65.5002V25.5602C5.72003 24.1002 6.91006 22.9102 8.37006 22.9102H59.3301C60.7901 22.9102 61.98 24.1002 61.98 25.5602V65.5002Z" fill="url(#paint2_linear_40_33)"/>
<path d="M52.23 25.9404H49.98C47.1855 25.9404 44.92 28.2059 44.92 31.0004C44.92 33.795 47.1855 36.0604 49.98 36.0604H52.23C55.0246 36.0604 57.29 33.795 57.29 31.0004C57.29 28.2059 55.0246 25.9404 52.23 25.9404Z" fill="black"/>
<path d="M17.4401 40.4702H15.1901C12.3956 40.4702 10.1301 42.7357 10.1301 45.5303C10.1301 48.3248 12.3956 50.5903 15.1901 50.5903H17.4401C20.2347 50.5903 22.5001 48.3248 22.5001 45.5303C22.5001 42.7357 20.2347 40.4702 17.4401 40.4702Z" fill="black"/>
<path d="M52.23 40.4702H49.98C47.1855 40.4702 44.92 42.7357 44.92 45.5303C44.92 48.3248 47.1855 50.5903 49.98 50.5903H52.23C55.0246 50.5903 57.29 48.3248 57.29 45.5303C57.29 42.7357 55.0246 40.4702 52.23 40.4702Z" fill="black"/>
<path d="M17.4401 55H15.1901C12.3956 55 10.1301 57.2654 10.1301 60.06C10.1301 62.8546 12.3956 65.12 15.1901 65.12H17.4401C20.2347 65.12 22.5001 62.8546 22.5001 60.06C22.5001 57.2654 20.2347 55 17.4401 55Z" fill="black"/>
<path d="M38.3801 25.9404H29.3101C28.3988 25.9404 27.66 26.6792 27.66 27.5905V34.4104C27.66 35.3217 28.3988 36.0604 29.3101 36.0604H38.3801C39.2913 36.0604 40.0301 35.3217 40.0301 34.4104V27.5905C40.0301 26.6792 39.2913 25.9404 38.3801 25.9404Z" fill="url(#paint3_linear_40_33)"/>
<path d="M55.6401 25.9404H46.5701C45.6588 25.9404 44.92 26.6792 44.92 27.5905V34.4104C44.92 35.3217 45.6588 36.0604 46.5701 36.0604H55.6401C56.5513 36.0604 57.29 35.3217 57.29 34.4104V27.5905C57.29 26.6792 56.5513 25.9404 55.6401 25.9404Z" fill="url(#paint4_linear_40_33)"/>
<path d="M55.6401 40.4702H46.5701C45.6588 40.4702 44.92 41.209 44.92 42.1202V48.9402C44.92 49.8515 45.6588 50.5903 46.5701 50.5903H55.6401C56.5513 50.5903 57.29 49.8515 57.29 48.9402V42.1202C57.29 41.209 56.5513 40.4702 55.6401 40.4702Z" fill="url(#paint5_linear_40_33)"/>
<path d="M55.6401 55H46.5701C45.6588 55 44.92 55.7388 44.92 56.65V63.47C44.92 64.3812 45.6588 65.12 46.5701 65.12H55.6401C56.5513 65.12 57.29 64.3812 57.29 63.47V56.65C57.29 55.7388 56.5513 55 55.6401 55Z" fill="url(#paint6_linear_40_33)"/>
<path d="M38.24 40.4702H29.17C28.2587 40.4702 27.52 41.209 27.52 42.1202V48.9402C27.52 49.8515 28.2587 50.5903 29.17 50.5903H38.24C39.1513 50.5903 39.89 49.8515 39.89 48.9402V42.1202C39.89 41.209 39.1513 40.4702 38.24 40.4702Z" fill="url(#paint7_linear_40_33)"/>
<path d="M38.24 55H29.17C28.2587 55 27.52 55.7388 27.52 56.65V63.47C27.52 64.3812 28.2587 65.12 29.17 65.12H38.24C39.1513 65.12 39.89 64.3812 39.89 63.47V56.65C39.89 55.7388 39.1513 55 38.24 55Z" fill="url(#paint8_linear_40_33)"/>
<path d="M20.8501 40.4702H11.7802C10.8689 40.4702 10.1301 41.209 10.1301 42.1202V48.9402C10.1301 49.8515 10.8689 50.5903 11.7802 50.5903H20.8501C21.7614 50.5903 22.5001 49.8515 22.5001 48.9402V42.1202C22.5001 41.209 21.7614 40.4702 20.8501 40.4702Z" fill="url(#paint9_linear_40_33)"/>
<path d="M20.8501 55H11.7802C10.8689 55 10.1301 55.7388 10.1301 56.65V63.47C10.1301 64.3812 10.8689 65.12 11.7802 65.12H20.8501C21.7614 65.12 22.5001 64.3812 22.5001 63.47V56.65C22.5001 55.7388 21.7614 55 20.8501 55Z" fill="url(#paint10_linear_40_33)"/>
<defs>
<linearGradient id="paint0_linear_40_33" x1="2" y1="21" x2="19" y2="1" gradientUnits="userSpaceOnUse">
<stop stop-color="#FF34B3"/>
<stop offset="1" stop-color="#F2A900"/>
</linearGradient>
<linearGradient id="paint1_linear_40_33" x1="33.5" y1="32" x2="55.5" y2="4" gradientUnits="userSpaceOnUse">
<stop stop-color="#FF34B3"/>
<stop offset="1" stop-color="#F2A900"/>
</linearGradient>
<linearGradient id="paint2_linear_40_33" x1="9.54435e-07" y1="74" x2="68" y2="6" gradientUnits="userSpaceOnUse">
<stop stop-color="#FF34B3"/>
<stop offset="1" stop-color="#F2A900"/>
</linearGradient>
<linearGradient id="paint3_linear_40_33" x1="28" y1="36" x2="40" y2="26" gradientUnits="userSpaceOnUse">
<stop stop-color="#FF34B3"/>
<stop offset="1" stop-color="#F2A900"/>
</linearGradient>
<linearGradient id="paint4_linear_40_33" x1="45" y1="36" x2="57" y2="26" gradientUnits="userSpaceOnUse">
<stop stop-color="#FF34B3"/>
<stop offset="1" stop-color="#F2A900"/>
</linearGradient>
<linearGradient id="paint5_linear_40_33" x1="45" y1="49.5" x2="57" y2="41" gradientUnits="userSpaceOnUse">
<stop stop-color="#FF34B3"/>
<stop offset="1" stop-color="#F2A900"/>
</linearGradient>
<linearGradient id="paint6_linear_40_33" x1="45" y1="65" x2="57" y2="55" gradientUnits="userSpaceOnUse">
<stop stop-color="#FF34B3"/>
<stop offset="1" stop-color="#F2A900"/>
</linearGradient>
<linearGradient id="paint7_linear_40_33" x1="28" y1="49.5" x2="39" y2="41" gradientUnits="userSpaceOnUse">
<stop stop-color="#FF34B3"/>
<stop offset="1" stop-color="#F2A900"/>
</linearGradient>
<linearGradient id="paint8_linear_40_33" x1="28" y1="65" x2="40" y2="55" gradientUnits="userSpaceOnUse">
<stop stop-color="#FF34B3"/>
<stop offset="1" stop-color="#F2A900"/>
</linearGradient>
<linearGradient id="paint9_linear_40_33" x1="10" y1="49.5" x2="22" y2="41.5" gradientUnits="userSpaceOnUse">
<stop stop-color="#FF34B3"/>
<stop offset="1" stop-color="#F2A900"/>
</linearGradient>
<linearGradient id="paint10_linear_40_33" x1="10" y1="65" x2="23" y2="55" gradientUnits="userSpaceOnUse">
<stop stop-color="#FF34B3"/>
<stop offset="1" stop-color="#F2A900"/>
</linearGradient>
</defs>
</svg>
