<svg width="79" height="61" viewBox="0 0 79 61" fill="none" xmlns="http://www.w3.org/2000/svg">
<path d="M44.16 60.0199L56.16 18.4199L60.48 35.6998C55.15 35.6998 50.77 34.1499 47.36 31.0599C43.95 27.9699 42.24 23.6999 42.24 18.2599C42.24 12.8199 43.9699 8.46985 47.4399 5.21985C50.9099 1.96985 55.26 0.339844 60.48 0.339844C65.7 0.339844 70.06 1.95985 73.52 5.21985C76.99 8.46985 78.72 12.8199 78.72 18.2599C78.72 19.7499 78.5899 21.2499 78.3199 22.7399C78.0599 24.2299 77.55 26.0399 76.8 28.1799C76.05 30.3099 74.9299 33.0899 73.4399 36.4999L63.2 60.0199H44.16ZM2.23999 60.0199L14.24 18.4199L18.5601 35.6998C13.2301 35.6998 8.84994 34.1499 5.43994 31.0599C2.02994 27.9699 0.319946 23.6999 0.319946 18.2599C0.319946 12.8199 2.06002 8.46985 5.52002 5.21985C8.99002 1.96985 13.3401 0.339844 18.5601 0.339844C23.7801 0.339844 28.14 1.95985 31.6 5.21985C35.07 8.46985 36.8 12.8199 36.8 18.2599C36.8 19.7499 36.67 21.2499 36.4 22.7399C36.14 24.2299 35.63 26.0399 34.88 28.1799C34.13 30.3099 33.01 33.0899 31.52 36.4999L21.28 60.0199H2.23999Z" fill="#55E7FF"/>
</svg>
