<svg width="79" height="60" viewBox="0 0 79 60" fill="none" xmlns="http://www.w3.org/2000/svg">
<path d="M34.88 0.149902L22.88 41.7499L18.56 24.4698C23.89 24.4698 28.27 26.0199 31.68 29.1099C35.09 32.1999 36.8 36.4699 36.8 41.9099C36.8 47.3499 35.07 51.6998 31.6 54.9498C28.13 58.1998 23.79 59.8298 18.56 59.8298C13.33 59.8298 8.98 58.2098 5.52 54.9498C2.05 51.6998 0.320007 47.3499 0.320007 41.9099C0.320007 40.4199 0.450001 38.9199 0.720001 37.4299C0.980001 35.9399 1.49001 34.1299 2.24001 31.9899C2.98001 29.8599 4.10001 27.0799 5.60001 23.6699L15.84 0.149902H34.88ZM76.8 0.149902L64.8 41.7499L60.48 24.4698C65.81 24.4698 70.19 26.0199 73.6 29.1099C77.01 32.1999 78.72 36.4699 78.72 41.9099C78.72 47.3499 76.98 51.6998 73.52 54.9498C70.05 58.1998 65.71 59.8298 60.48 59.8298C55.25 59.8298 50.9 58.2098 47.44 54.9498C43.97 51.6998 42.24 47.3499 42.24 41.9099C42.24 40.4199 42.37 38.9199 42.64 37.4299C42.9 35.9399 43.41 34.1299 44.16 31.9899C44.9 29.8599 46.02 27.0799 47.52 23.6699L57.76 0.149902H76.8Z" fill="#55E7FF"/>
</svg>
