<svg width="63" height="90" viewBox="0 0 63 90" fill="none" xmlns="http://www.w3.org/2000/svg">
<path d="M31.71 0.290039C14.53 0.290039 0.599976 14.2201 0.599976 31.4001C0.599976 34.3501 1.01998 37.21 1.78998 39.91C2.25998 41.58 2.77998 43.23 3.59998 44.73C9.97998 56.41 31.72 89.9401 31.72 89.9401C31.72 89.9401 53.46 56.41 59.84 44.73C60.66 43.23 61.17 41.58 61.65 39.91C62.42 37.2 62.84 34.3501 62.84 31.4001C62.84 14.2201 48.91 0.290039 31.73 0.290039H31.71ZM31.71 45.1C27.37 45.1 23.5 43.07 20.99 39.91C19.13 37.57 18.01 34.6101 18.01 31.4001C18.01 23.8501 24.16 17.7001 31.71 17.7001C39.26 17.7001 45.41 23.8501 45.41 31.4001C45.41 34.6201 44.29 37.57 42.43 39.91C39.92 43.07 36.05 45.1 31.71 45.1Z" fill="url(#paint0_linear_40_32)"/>
<defs>
<linearGradient id="paint0_linear_40_32" x1="14" y1="79" x2="63" y2="1.13151e-06" gradientUnits="userSpaceOnUse">
<stop stop-color="#FF34B3"/>
<stop offset="1" stop-color="#F2A900"/>
</linearGradient>
</defs>
</svg>
