<svg width="121" height="120" viewBox="0 0 121 120" fill="none" xmlns="http://www.w3.org/2000/svg">
<path d="M60.51 0.149902C27.59 0.149902 0.900024 26.8399 0.900024 59.7599C0.900024 92.6799 27.59 119.37 60.51 119.37C93.43 119.37 120.12 92.6799 120.12 59.7599C120.12 26.8399 93.43 0.149902 60.51 0.149902ZM13.63 59.1999L30.14 31.9699L38.9399 37.3099L22.42 64.5299L13.62 59.1999H13.63ZM97.7 66.9699L96.5699 63.7799C94.1099 64.2099 87.01 65.5599 83.09 67.4099C82.78 71.6499 78.37 72.3999 78.37 72.3999C78.22 77.5899 73.6801 78.3299 73.6801 78.3299C73.5301 83.5199 67.66 83.3699 67.66 83.3699C66.85 86.8099 63.83 87.2099 59.95 86.0399L62.9 81.5099L59.67 86.4699C58.85 87.7199 56.94 87.9199 55.39 86.9099C54.17 86.1099 53.56 84.7999 53.75 83.6699C52.72 84.8999 50.87 85.1799 49.42 84.2399C47.96 83.2899 47.47 81.4199 48.24 79.9699C48.22 79.9599 48.2099 79.9499 48.1899 79.9399C48.2399 79.8699 48.31 79.8099 48.36 79.7399C47.4 81.2199 45.3599 81.5999 43.8199 80.5999C42.2799 79.5899 41.8 77.5699 42.76 76.0899V76.0699C42.76 76.0699 42.72 76.0299 42.7 76.0199C42.78 75.9599 42.8601 75.8999 42.9301 75.8299C42.0101 76.7399 40.34 76.8099 38.95 75.9099C37.4 74.8999 36.81 73.0699 37.62 71.8199C37.62 71.8299 37.61 71.8499 37.6 71.8599C36.65 71.0199 36.03 70.3899 35.83 70.0899C34.3 67.7999 27.87 62.0799 27.87 62.0799L40.1801 41.7799C41.9801 42.8799 54.94 43.8999 58.46 44.3299L46.89 56.3299L59.51 43.2399C59.51 43.2399 63.23 41.4099 68.35 43.2399C74.9 45.5899 85.7601 42.4499 88.6801 41.5099L87.0699 36.9599L96.77 33.5299L107.38 63.5499L97.6801 66.9799L97.7 66.9699Z" fill="url(#paint0_linear_47_2962)"/>
<defs>
<linearGradient id="paint0_linear_47_2962" x1="95" y1="11" x2="38" y2="111" gradientUnits="userSpaceOnUse">
<stop stop-color="#F2A900"/>
<stop offset="1" stop-color="#FF34B3"/>
</linearGradient>
</defs>
</svg>
