<svg width="240" height="240" viewBox="0 0 240 240" fill="none" xmlns="http://www.w3.org/2000/svg">
<g clip-path="url(#clip0_7_1091)">
<path d="M31.824 94.608C24.192 88.704 12.72 92.544 10.416 102.192L0 145.92L15.264 141.216L23.856 104.976L25.536 98.352C25.536 98.352 26.832 93.6 31.824 94.608Z" fill="#2011A2"/>
<path d="M32.784 95.424C32.448 95.136 32.16 94.848 31.824 94.608C26.832 93.6 25.488 98.352 25.488 98.352L23.808 104.976L43.824 124.32L47.952 109.392L32.784 95.424Z" fill="#2011A2"/>
<path d="M37.92 145.392C45.552 151.296 57.024 147.456 59.328 137.76L69.744 94.08L54.48 98.784L45.888 135.024L44.208 141.648C44.208 141.648 42.912 146.4 37.92 145.392Z" fill="#2011A2"/>
<path d="M36.912 144.576C37.248 144.864 37.536 145.152 37.872 145.392C42.864 146.4 44.208 141.648 44.208 141.648L45.888 135.024L25.92 115.68L21.792 130.608L36.912 144.576Z" fill="#2011A2"/>
<path d="M76.608 132.624H71.376V117.984H76.224V121.104C76.224 121.104 77.328 117.12 82.416 117.36C87.168 117.792 87.12 121.68 87.12 121.68V132.576C87.12 132.576 81.984 132.624 81.936 132.576C81.888 132.528 81.936 123.888 81.936 123.888C81.936 123.888 81.984 121.392 79.392 121.392C76.752 121.44 76.56 124.992 76.56 124.992L76.608 132.624Z" fill="#2011A2"/>
<path d="M173.664 132.624H168.432V117.984H173.28V121.104C173.28 121.104 174.384 117.12 179.472 117.36C184.224 117.792 184.176 121.68 184.176 121.68V132.576C184.176 132.576 179.04 132.624 178.992 132.576C178.944 132.528 178.992 123.888 178.992 123.888C178.992 123.888 179.04 121.392 176.448 121.392C173.808 121.44 173.616 124.992 173.616 124.992L173.664 132.624Z" fill="#2011A2"/>
<path d="M101.232 127.872L104.832 129.84C104.832 129.84 103.44 133.584 97.776 133.392C95.712 133.344 93.6 132.72 92.064 131.28C88.512 127.968 88.752 122.016 92.64 119.088C96 116.496 101.184 116.976 103.92 120.288C105.312 121.968 105.648 123.456 105.552 126.576C102.72 126.576 94.656 126.576 94.656 126.576C94.656 126.576 94.224 129.36 97.488 129.84C100.656 129.936 101.232 127.872 101.232 127.872ZM94.56 123.408H100.416C100.416 123.408 100.08 120.768 97.488 120.768C94.896 120.768 94.56 123.408 94.56 123.408Z" fill="#2011A2"/>
<path d="M118.32 118.08V126.72C118.32 128.112 117.168 129.264 115.776 129.264C114.384 129.264 113.232 128.112 113.232 126.72V118.08H108.288V126.48C108.288 130.224 111.312 133.248 115.056 133.248H116.544C120.288 133.248 123.312 130.224 123.312 126.48V118.08H118.32Z" fill="#2011A2"/>
<path d="M132.624 113.568H127.584V132.768H132.624V113.568Z" fill="#2011A2"/>
<path d="M135.072 118.08H125.088V121.968H135.072V118.08Z" fill="#2011A2"/>
<path d="M142.416 132.768H137.088V118.08H141.792V121.536C141.792 121.536 143.28 116.784 148.08 117.792C148.08 120.384 148.08 122.784 148.08 122.784C148.08 122.784 143.376 120.576 142.416 125.424C142.416 130.512 142.416 132.768 142.416 132.768Z" fill="#2011A2"/>
<path d="M149.328 125.376C149.328 120.96 152.928 117.408 157.392 117.408C161.856 117.408 165.456 120.96 165.456 125.376C165.456 129.792 161.856 133.344 157.392 133.344C152.928 133.344 149.328 129.792 149.328 125.376ZM157.392 128.832C159.072 128.832 160.416 127.296 160.416 125.376C160.416 123.456 159.072 121.92 157.392 121.92C155.712 121.92 154.368 123.456 154.368 125.376C154.368 127.296 155.712 128.832 157.392 128.832Z" fill="#2011A2"/>
<path d="M187.584 118.128H192.144V120.576C192.144 120.576 194.112 117.312 197.808 117.6C201.552 117.888 203.088 121.584 203.088 121.584C203.088 121.584 204.432 124.704 203.088 128.784C201.312 133.728 197.088 133.056 197.088 133.056C197.088 133.056 193.968 133.392 192.288 130.32C192.288 133.872 192.288 138.912 192.288 138.912H187.632L187.584 118.128ZM195.36 128.928C197.184 128.928 198.672 127.344 198.672 125.376C198.672 123.408 197.184 121.824 195.36 121.824C193.536 121.824 192.048 123.408 192.048 125.376C192.048 127.344 193.536 128.928 195.36 128.928Z" fill="#2011A2"/>
<path d="M217.488 118.128L217.536 120.384C216.624 118.752 214.848 117.648 213.024 117.6C208.656 117.456 206.016 121.296 205.92 125.376C205.92 126.432 206.112 127.536 206.496 128.544C207.072 130.272 208.176 131.952 209.856 132.768C211.824 133.728 214.608 133.2 216.288 131.856C216.672 131.568 217.488 130.848 217.488 130.32V132.624H222.24V118.128H217.488ZM214.272 129.216C212.352 129.216 210.816 127.488 210.816 125.376C210.816 123.264 212.352 121.536 214.272 121.536C216.192 121.536 217.728 123.264 217.728 125.376C217.776 127.488 216.192 129.216 214.272 129.216Z" fill="#2011A2"/>
<path d="M223.488 118.176H229.104L231.936 125.424L234.624 118.176H240L230.928 138.96H225.072L229.392 130.32L223.488 118.176Z" fill="#2011A2"/>
</g>
<defs>
<clipPath id="clip0_7_1091">
<rect width="240" height="240" fill="white"/>
</clipPath>
</defs>
</svg>
