<svg width="241" height="58" viewBox="0 0 241 58" fill="none" xmlns="http://www.w3.org/2000/svg">
<path d="M32.094 3.60798C24.462 -2.29602 12.99 1.54398 10.686 11.192L0.27002 54.92L15.534 50.216L24.126 13.976L25.806 7.35198C25.806 7.35198 27.102 2.59998 32.094 3.60798Z" fill="#2011A2"/>
<path d="M33.054 4.424C32.718 4.136 32.43 3.848 32.094 3.608C27.102 2.6 25.758 7.35201 25.758 7.35201L24.078 13.976L44.094 33.32L48.222 18.392L33.054 4.424Z" fill="#2011A2"/>
<path d="M38.1901 54.392C45.8221 60.296 57.2941 56.456 59.5981 46.76L70.0141 3.07996L54.7501 7.78396L46.1581 44.024L44.4781 50.648C44.4781 50.648 43.1821 55.4 38.1901 54.392Z" fill="#2011A2"/>
<path d="M37.182 53.5759C37.518 53.8639 37.806 54.1519 38.142 54.3919C43.134 55.3999 44.478 50.6479 44.478 50.6479L46.158 44.0239L26.19 24.6799L22.062 39.6079L37.182 53.5759Z" fill="#2011A2"/>
<path d="M76.878 41.624H71.646V26.984H76.494V30.104C76.494 30.104 77.598 26.12 82.686 26.36C87.438 26.792 87.39 30.68 87.39 30.68V41.576C87.39 41.576 82.254 41.624 82.206 41.576C82.158 41.528 82.206 32.888 82.206 32.888C82.206 32.888 82.254 30.392 79.662 30.392C77.022 30.44 76.83 33.992 76.83 33.992L76.878 41.624Z" fill="#2011A2"/>
<path d="M173.934 41.624H168.702V26.984H173.55V30.104C173.55 30.104 174.654 26.12 179.742 26.36C184.494 26.792 184.446 30.68 184.446 30.68V41.576C184.446 41.576 179.31 41.624 179.262 41.576C179.214 41.528 179.262 32.888 179.262 32.888C179.262 32.888 179.31 30.392 176.718 30.392C174.078 30.44 173.886 33.992 173.886 33.992L173.934 41.624Z" fill="#2011A2"/>
<path d="M101.502 36.8719L105.102 38.8399C105.102 38.8399 103.71 42.5839 98.046 42.3919C95.982 42.3439 93.87 41.7199 92.334 40.2799C88.782 36.9679 89.022 31.0159 92.91 28.0879C96.27 25.4959 101.454 25.9759 104.19 29.2879C105.582 30.9679 105.918 32.4559 105.822 35.5759C102.99 35.5759 94.926 35.5759 94.926 35.5759C94.926 35.5759 94.494 38.3599 97.758 38.8399C100.926 38.9359 101.502 36.8719 101.502 36.8719ZM94.83 32.4079H100.686C100.686 32.4079 100.35 29.7679 97.758 29.7679C95.166 29.7679 94.83 32.4079 94.83 32.4079Z" fill="#2011A2"/>
<path d="M118.59 27.08V35.72C118.59 37.112 117.438 38.264 116.046 38.264C114.654 38.264 113.502 37.112 113.502 35.72V27.08H108.558V35.48C108.558 39.224 111.582 42.248 115.326 42.248H116.814C120.558 42.248 123.582 39.224 123.582 35.48V27.08H118.59Z" fill="#2011A2"/>
<path d="M132.894 22.568H127.854V41.768H132.894V22.568Z" fill="#2011A2"/>
<path d="M135.342 27.08H125.358V30.968H135.342V27.08Z" fill="#2011A2"/>
<path d="M142.686 41.768H137.358V27.08H142.062V30.536C142.062 30.536 143.55 25.784 148.35 26.792C148.35 29.384 148.35 31.784 148.35 31.784C148.35 31.784 143.646 29.576 142.686 34.424C142.686 39.512 142.686 41.768 142.686 41.768Z" fill="#2011A2"/>
<path d="M149.598 34.376C149.598 29.96 153.198 26.408 157.662 26.408C162.126 26.408 165.726 29.96 165.726 34.376C165.726 38.792 162.126 42.344 157.662 42.344C153.198 42.344 149.598 38.792 149.598 34.376ZM157.662 37.832C159.342 37.832 160.686 36.296 160.686 34.376C160.686 32.456 159.342 30.92 157.662 30.92C155.982 30.92 154.638 32.456 154.638 34.376C154.638 36.296 155.982 37.832 157.662 37.832Z" fill="#2011A2"/>
<path d="M187.854 27.128H192.414V29.576C192.414 29.576 194.382 26.312 198.078 26.6C201.822 26.888 203.358 30.584 203.358 30.584C203.358 30.584 204.702 33.704 203.358 37.784C201.582 42.728 197.358 42.056 197.358 42.056C197.358 42.056 194.238 42.392 192.558 39.32C192.558 42.872 192.558 47.912 192.558 47.912H187.902L187.854 27.128ZM195.63 37.928C197.454 37.928 198.942 36.344 198.942 34.376C198.942 32.408 197.454 30.824 195.63 30.824C193.806 30.824 192.318 32.408 192.318 34.376C192.318 36.344 193.806 37.928 195.63 37.928Z" fill="#2011A2"/>
<path d="M217.758 27.128L217.806 29.384C216.894 27.752 215.118 26.648 213.294 26.6C208.926 26.456 206.286 30.296 206.19 34.376C206.19 35.432 206.382 36.536 206.766 37.544C207.342 39.272 208.446 40.952 210.126 41.768C212.094 42.728 214.878 42.2 216.558 40.856C216.942 40.568 217.758 39.848 217.758 39.32V41.624H222.51V27.128H217.758ZM214.542 38.216C212.622 38.216 211.086 36.488 211.086 34.376C211.086 32.264 212.622 30.536 214.542 30.536C216.462 30.536 217.998 32.264 217.998 34.376C218.046 36.488 216.462 38.216 214.542 38.216Z" fill="#2011A2"/>
<path d="M223.758 27.176H229.374L232.206 34.424L234.894 27.176H240.27L231.198 47.96H225.342L229.662 39.32L223.758 27.176Z" fill="#2011A2"/>
</svg>
