<svg width="281" height="47" viewBox="0 0 281 47" fill="none" xmlns="http://www.w3.org/2000/svg">
<g clip-path="url(#clip0_303_263)">
<path d="M49.5556 12.0878L35.9773 25.6661C35.8874 25.7562 35.7728 25.8176 35.648 25.8424C35.5232 25.8671 35.3938 25.8542 35.2764 25.8053C35.1589 25.7564 35.0587 25.6736 34.9884 25.5675C34.9181 25.4614 34.881 25.3368 34.8817 25.2096V18.9602H26.6375C26.5534 18.9602 26.4701 18.9436 26.3924 18.9114C26.3147 18.8791 26.2441 18.8318 26.1848 18.7722C26.1254 18.7127 26.0784 18.6419 26.0464 18.5641C26.0144 18.4863 25.9981 18.403 25.9984 18.3189V12.0878H18.1057L3.18298 27.0584L11.0323 34.9123L24.4988 21.4458C24.5888 21.3565 24.7032 21.2958 24.8276 21.2715C24.952 21.2471 25.0809 21.2602 25.1979 21.3091C25.3149 21.3579 25.4147 21.4403 25.4849 21.5459C25.5551 21.6515 25.5924 21.7755 25.5921 21.9023V28.2544H33.9505C34.1206 28.2544 34.2837 28.322 34.404 28.4422C34.5243 28.5625 34.5918 28.7257 34.5918 28.8958V34.9009H42.4846L57.4186 19.9348L49.5556 12.0878Z" fill="#2011A2"/>
<path d="M98.6011 12.074V34.8826H91.5255C90.3941 34.8962 89.2834 34.5789 88.33 33.9696C87.3728 33.352 86.6081 32.4782 86.1229 31.4475L80.0904 19.0538H78.673V34.8757H72.5605V12.074H79.6476C80.7789 12.0604 81.8896 12.3777 82.843 12.987C83.7988 13.602 84.564 14.4715 85.0524 15.4977L91.1169 27.8914H92.5343V12.074H98.6011Z" fill="#2011A2"/>
<path d="M129.225 12.074V35.1793H113.962C110.49 35.1793 107.765 34.2617 105.788 32.4266C103.812 30.5915 102.823 27.8526 102.821 24.2098V12.074H109.018V24.2029C109.018 26.0289 109.469 27.3474 110.369 28.1584C111.27 28.9695 112.468 29.3765 113.962 29.3795H123.026V12.074H129.225Z" fill="#2011A2"/>
<path d="M159.444 12.074V34.8826H152.369C151.237 34.8968 150.126 34.5794 149.173 33.9696C148.215 33.3521 147.45 32.4783 146.964 31.4475L140.931 19.0538H139.514V34.8757H133.411V12.074H140.486C141.618 12.0603 142.728 12.3776 143.682 12.987C144.637 13.602 145.403 14.4715 145.891 15.4977L151.956 27.8914H153.373V12.074H159.444Z" fill="#2011A2"/>
<path d="M182.919 17.8258C181.957 17.5361 180.957 17.3968 179.952 17.4126H175.141C173.249 17.4126 171.755 17.968 170.658 19.0788C169.561 20.1896 169.012 21.6451 169.01 23.4452V23.4794C169.054 25.3054 169.614 26.7722 170.69 27.88C171.766 28.9877 173.249 29.5424 175.141 29.5439H179.952C180.98 29.567 182.005 29.422 182.986 29.1148C183.815 28.8325 184.578 28.3835 185.227 27.7955L188.721 32.2805C187.655 33.2746 186.383 34.0225 184.996 34.4717C183.363 34.9735 181.66 35.2124 179.952 35.1793H175.141C172.612 35.1793 170.425 34.6961 168.581 33.7299C166.792 32.8175 165.321 31.3853 164.361 29.6215C163.393 27.8533 162.91 25.8045 162.911 23.4748V23.4406C162.911 21.1125 163.394 19.0689 164.361 17.3099C165.325 15.5584 166.793 14.1366 168.574 13.2289C170.418 12.2642 172.605 11.7811 175.134 11.7795H179.945C181.635 11.7489 183.32 11.9799 184.939 12.4643C186.348 12.908 187.638 13.6631 188.715 14.6737L185.236 19.1633C184.569 18.5556 183.779 18.0993 182.919 17.8258Z" fill="#2011A2"/>
<path d="M211.596 12.074H217.759V34.8825H211.596V26.28H197.917V34.8825H191.72V12.074H197.917V20.6446H211.596V12.074Z" fill="#2011A2"/>
<path d="M248.382 12.074V35.1793H233.12C229.647 35.1793 226.923 34.2617 224.946 32.4266C222.97 30.5915 221.981 27.8526 221.979 24.2098V12.074H228.176V24.2029C228.176 26.0289 228.626 27.3474 229.527 28.1584C230.428 28.9695 231.625 29.3765 233.12 29.3795H242.186V12.074H248.382Z" fill="#2011A2"/>
<path d="M258.765 34.8826H252.568V12.0741H258.765V20.1813L277.675 11.7773V18.3965L270.193 21.7585L277.808 34.8758H270.985L264.665 24.2373L258.765 26.9054V34.8826Z" fill="#2011A2"/>
</g>
<defs>
<clipPath id="clip0_303_263">
<rect width="281" height="47" fill="white"/>
</clipPath>
</defs>
</svg>
