<svg width="321" height="70" viewBox="0 0 321 70" fill="none" xmlns="http://www.w3.org/2000/svg">
<path d="M69.9855 23.5878L56.4072 37.1661C56.3174 37.2562 56.2028 37.3176 56.0779 37.3424C55.9531 37.3671 55.8238 37.3542 55.7063 37.3053C55.5889 37.2564 55.4886 37.1736 55.4183 37.0675C55.348 36.9614 55.3109 36.8368 55.3116 36.7096V30.4602H47.0674C46.9833 30.4602 46.9 30.4436 46.8223 30.4114C46.7446 30.3791 46.6741 30.3318 46.6147 30.2722C46.5553 30.2127 46.5083 30.1419 46.4763 30.0641C46.4443 29.9863 46.428 29.903 46.4283 29.8189V23.5878H38.5356L23.6129 38.5584L31.4623 46.4123L44.9288 32.9458C45.0187 32.8565 45.1331 32.7958 45.2575 32.7715C45.382 32.7471 45.5108 32.7602 45.6278 32.8091C45.7448 32.8579 45.8447 32.9403 45.9148 33.0459C45.985 33.1515 46.0223 33.2755 46.022 33.4023V39.7544H54.3804C54.5505 39.7544 54.7136 39.822 54.8339 39.9422C54.9542 40.0625 55.0218 40.2257 55.0218 40.3958V46.4009H62.9145L77.8486 31.4348L69.9855 23.5878Z" fill="#2011A2"/>
<path d="M119.031 23.574V46.3826H111.955C110.824 46.3962 109.713 46.0789 108.76 45.4696C107.803 44.852 107.038 43.9782 106.553 42.9475L100.52 30.5538H99.1029V46.3757H92.9905V23.574H100.078C101.209 23.5604 102.32 23.8777 103.273 24.487C104.229 25.102 104.994 25.9715 105.482 26.9977L111.547 39.3914H112.964V23.574H119.031Z" fill="#2011A2"/>
<path d="M149.655 23.574V46.6793H134.392C130.92 46.6793 128.195 45.7617 126.218 43.9266C124.242 42.0915 123.253 39.3526 123.251 35.7098V23.574H129.448V35.7029C129.448 37.5289 129.898 38.8474 130.799 39.6584C131.7 40.4695 132.898 40.8765 134.392 40.8795H143.456V23.574H149.655Z" fill="#2011A2"/>
<path d="M179.874 23.574V46.3826H172.799C171.667 46.3968 170.556 46.0794 169.603 45.4696C168.645 44.8521 167.88 43.9783 167.394 42.9475L161.361 30.5538H159.944V46.3757H153.841V23.574H160.916C162.048 23.5603 163.158 23.8776 164.112 24.487C165.067 25.102 165.833 25.9715 166.321 26.9977L172.386 39.3914H173.803V23.574H179.874Z" fill="#2011A2"/>
<path d="M203.349 29.3258C202.387 29.0361 201.387 28.8968 200.382 28.9126H195.571C193.679 28.9126 192.185 29.468 191.088 30.5788C189.991 31.6896 189.442 33.1451 189.44 34.9452V34.9794C189.484 36.8054 190.044 38.2722 191.12 39.38C192.196 40.4877 193.679 41.0424 195.571 41.0439H200.382C201.41 41.067 202.434 40.922 203.415 40.6148C204.245 40.3325 205.008 39.8835 205.657 39.2955L209.151 43.7805C208.085 44.7746 206.813 45.5225 205.426 45.9717C203.793 46.4735 202.09 46.7124 200.382 46.6793H195.571C193.042 46.6793 190.855 46.1961 189.011 45.2299C187.222 44.3175 185.751 42.8853 184.791 41.1215C183.823 39.3533 183.34 37.3045 183.341 34.9748V34.9406C183.341 32.6125 183.824 30.5689 184.791 28.8099C185.755 27.0584 187.223 25.6366 189.004 24.7289C190.848 23.7642 193.035 23.2811 195.564 23.2795H200.375C202.065 23.2489 203.75 23.4799 205.369 23.9643C206.778 24.408 208.068 25.1631 209.144 26.1737L205.666 30.6633C204.999 30.0556 204.209 29.5993 203.349 29.3258Z" fill="#2011A2"/>
<path d="M232.026 23.574H238.189V46.3825H232.026V37.78H218.347V46.3825H212.15V23.574H218.347V32.1446H232.026V23.574Z" fill="#2011A2"/>
<path d="M268.812 23.574V46.6793H253.55C250.077 46.6793 247.353 45.7617 245.376 43.9266C243.4 42.0915 242.41 39.3526 242.409 35.7098V23.574H248.606V35.7029C248.606 37.5289 249.056 38.8474 249.957 39.6584C250.858 40.4695 252.055 40.8765 253.55 40.8795H262.616V23.574H268.812Z" fill="#2011A2"/>
<path d="M279.195 46.3826H272.999V23.5741H279.195V31.6813L298.106 23.2773V29.8965L290.624 33.2585L298.238 46.3758H291.416L285.096 35.7373L279.195 38.4054V46.3826Z" fill="#2011A2"/>
</svg>
