<svg width="78" height="92" viewBox="0 0 78 92" fill="none" xmlns="http://www.w3.org/2000/svg">
<path fill-rule="evenodd" clip-rule="evenodd" d="M77.06 2.65015C76.97 1.84015 76.61 1.13012 75.89 0.68012C75.26 0.23012 74.46 0.0501074 73.65 0.230107C66.39 2.02011 47.47 8.66012 31.77 30.8001L24.78 40.7501L22.09 40.6601C16.89 40.5701 11.9599 42.9901 8.90994 47.3001L0.569978 59.1301C0.119978 59.8501 0.0299856 60.7501 0.389986 61.5501C0.839986 62.2701 1.54998 62.8001 2.44998 62.8001L11.15 63.0701C13.66 63.0701 15.99 63.8801 18.05 65.3101L18.68 65.7601L18.59 65.8501L14.4699 71.6801C13.5799 73.0201 13.84 74.9101 15.19 75.8901L25.05 82.8001C26.4 83.7901 28.28 83.4301 29.27 82.0801L33.39 76.2501V76.1601L34.11 76.6101C36.08 78.0401 37.61 80.0101 38.5 82.3501L41.64 90.5101C42 91.3201 42.72 91.8601 43.53 91.9501C44.42 92.1301 45.23 91.6802 45.77 90.9602L54.11 79.1201C57.16 74.9101 57.79 69.4401 55.99 64.5001L55 61.9901L61.99 52.1301C77.59 29.9801 77.68 9.98013 77.06 2.63013V2.65015ZM57.69 14.1301C59.84 10.9901 64.24 10.2801 67.37 12.4201C70.51 14.6601 71.22 19.0601 69.07 22.1901C66.83 25.3301 62.43 26.0502 59.3 23.9002C56.16 21.6602 55.45 17.2701 57.69 14.1301Z" fill="url(#paint0_linear_40_49)"/>
<defs>
<linearGradient id="paint0_linear_40_49" x1="15" y1="78" x2="77" y2="1.6503e-06" gradientUnits="userSpaceOnUse">
<stop stop-color="#FF34B3"/>
<stop offset="1" stop-color="#F2A900"/>
</linearGradient>
</defs>
</svg>
