<svg width="93" height="93" viewBox="0 0 93 93" fill="none" xmlns="http://www.w3.org/2000/svg">
<g filter="url(#filter0_d_48_3030)">
<path d="M39.3 13.6899C25.04 13.6899 13.48 25.25 13.48 39.51C13.48 53.77 25.04 65.33 39.3 65.33C53.56 65.33 65.12 53.77 65.12 39.51C65.12 25.25 53.56 13.6899 39.3 13.6899ZM46.94 47.38C50.28 49.32 47.26 54.4999 43.91 52.5599C42.67 51.8399 41.43 51.12 40.19 50.4C35.4 47.63 30.61 44.85 25.82 42.08C23.88 40.96 23.87 38.02 25.82 36.9C27.06 36.18 28.31 35.47 29.55 34.75C34.35 31.99 39.15 29.23 43.95 26.46C47.31 24.53 50.32 29.72 46.98 31.64C45.74 32.36 44.49 33.07 43.25 33.79C39.95 35.69 36.64 37.59 33.34 39.49C37.88 42.12 42.41 44.75 46.95 47.37L46.94 47.38Z" fill="url(#paint0_linear_48_3030)"/>
</g>
<defs>
<filter id="filter0_d_48_3030" x="0.47998" y="0.689941" width="91.64" height="91.6401" filterUnits="userSpaceOnUse" color-interpolation-filters="sRGB">
<feFlood flood-opacity="0" result="BackgroundImageFix"/>
<feColorMatrix in="SourceAlpha" type="matrix" values="0 0 0 0 0 0 0 0 0 0 0 0 0 0 0 0 0 0 127 0" result="hardAlpha"/>
<feOffset dx="7" dy="7"/>
<feGaussianBlur stdDeviation="10"/>
<feColorMatrix type="matrix" values="0 0 0 0 0 0 0 0 0 0 0 0 0 0 0 0 0 0 0.2 0"/>
<feBlend mode="normal" in2="BackgroundImageFix" result="effect1_dropShadow_48_3030"/>
<feBlend mode="normal" in="SourceGraphic" in2="effect1_dropShadow_48_3030" result="shape"/>
</filter>
<linearGradient id="paint0_linear_48_3030" x1="39.3" y1="13.6899" x2="39.3" y2="65.33" gradientUnits="userSpaceOnUse">
<stop stop-color="#F2A900"/>
<stop offset="1" stop-color="#FF34B3"/>
</linearGradient>
</defs>
</svg>
