<svg width="120" height="120" viewBox="0 0 120 120" fill="none" xmlns="http://www.w3.org/2000/svg">
<path d="M60.33 119.37C93.2517 119.37 119.94 92.6816 119.94 59.7599C119.94 26.8382 93.2517 0.149902 60.33 0.149902C27.4083 0.149902 0.719971 26.8382 0.719971 59.7599C0.719971 92.6816 27.4083 119.37 60.33 119.37Z" fill="url(#paint0_linear_246_2)"/>
<path d="M41.21 79.8599L86.5 66.8499L78.75 39.8599L33.46 52.8699L41.21 79.8599ZM70.09 51.5799L75.5399 50.0199L76.05 51.8099L74.2899 52.3199L76.63 60.4599L74.7 61.0199L72.36 52.8799L70.61 53.3799L70.1 51.5899L70.09 51.5799ZM64.97 53.0499L69.2899 51.8099L69.77 53.4799L67.39 54.1599L68.05 56.4399L70.31 55.7899L70.77 57.3899L68.5099 58.0399L69.28 60.7299L71.83 59.9999L72.31 61.6699L67.83 62.9599L64.9799 53.0399L64.97 53.0499ZM58.21 54.9899L60.13 54.4399L61.41 58.9099H61.45C61.49 58.4299 61.52 57.9599 61.56 57.4699L61.97 53.9099L64.1 53.2999L63.1199 58.2599L66.9799 63.2099L64.8699 63.8199L62.25 60.1299L62.0399 61.0699L62.99 64.3699L61.07 64.9199L58.22 54.9999L58.21 54.9899ZM55.88 55.5599C56.56 55.3599 57.07 55.3699 57.3 55.4299L57.45 57.1499C57.19 57.1099 56.92 57.0899 56.5 57.2099C55.4 57.5299 54.69 58.7599 55.39 61.2099C56.09 63.6599 57.24 64.2499 58.41 63.9099C58.73 63.8199 59.08 63.6399 59.3 63.4999L59.95 65.0699C59.71 65.2799 59.2 65.5399 58.53 65.7299C55.99 66.4599 54.1799 64.7199 53.3699 61.9099C52.2999 58.1699 53.95 56.1099 55.88 55.5599ZM48.74 57.7099L50.67 57.1499L53.52 67.0699L51.59 67.6299L48.74 57.7099ZM47.72 57.9999L48.2299 59.7899L46.47 60.2999L48.81 68.4399L46.88 68.9999L44.5399 60.8599L42.7899 61.3599L42.28 59.5699L47.7299 58.0099L47.72 57.9999Z" fill="url(#paint1_linear_246_2)"/>
<path d="M32.86 53.04L30.07 53.84C28.33 54.34 27.33 56.16 27.82 57.9L33.76 78.59C34.26 80.33 36.08 81.33 37.82 80.84L40.61 80.04L32.86 53.05V53.04Z" fill="url(#paint2_linear_246_2)"/>
<path d="M82.85 38.68L79.35 39.6901L87.1 66.68L90.6 65.6701C92.34 65.1701 93.34 63.35 92.85 61.61L86.91 40.9201C86.41 39.1801 84.59 38.1801 82.85 38.6701V38.68Z" fill="url(#paint3_linear_246_2)"/>
<path d="M96.99 36.81L96.87 36.38C96.39 36.62 95.88 36.82 95.34 36.98C90.95 38.24 86.46 36.03 85.32 32.03C85.17 31.51 85.09 30.99 85.06 30.47L23.85 48.05C24.1 48.5 24.31 48.99 24.46 49.51C25.61 53.5 22.98 57.76 18.59 59.02C18.05 59.17 17.51 59.28 16.97 59.33L17.09 59.76C17.09 59.76 17.13 59.74 17.16 59.74C17.91 59.53 18.69 59.96 18.9 60.7C19.11 61.44 18.68 62.23 17.94 62.44C17.92 62.44 17.89 62.45 17.87 62.46L18.04 63.06C18.04 63.06 18.08 63.04 18.11 63.04C18.86 62.83 19.64 63.26 19.85 64C20.06 64.74 19.63 65.53 18.89 65.74C18.87 65.74 18.84 65.75 18.82 65.76L18.99 66.36C18.99 66.36 19.03 66.34 19.06 66.34C19.81 66.13 20.59 66.56 20.8 67.3C21.01 68.04 20.58 68.83 19.84 69.04C19.82 69.04 19.79 69.05 19.77 69.06L19.94 69.66C19.94 69.66 19.98 69.64 20.01 69.64C20.76 69.43 21.54 69.86 21.75 70.6C21.96 71.34 21.53 72.13 20.79 72.34C20.77 72.34 20.74 72.35 20.72 72.36L20.89 72.96C20.89 72.96 20.93 72.94 20.96 72.94C21.71 72.73 22.49 73.16 22.7 73.9C22.91 74.64 22.48 75.43 21.74 75.64C21.72 75.64 21.69 75.65 21.67 75.66L21.84 76.26C21.84 76.26 21.88 76.24 21.91 76.24C22.66 76.03 23.44 76.46 23.65 77.2C23.86 77.94 23.43 78.73 22.69 78.94C22.67 78.94 22.64 78.95 22.62 78.96L22.79 79.56C22.79 79.56 22.83 79.54 22.86 79.54C23.61 79.33 24.39 79.76 24.6 80.5C24.81 81.24 24.38 82.03 23.64 82.24C23.62 82.24 23.59 82.25 23.57 82.26L23.74 82.86C23.74 82.86 23.78 82.84 23.81 82.84C24.56 82.63 25.34 83.06 25.55 83.8C25.76 84.54 25.33 85.33 24.59 85.54C24.57 85.54 24.54 85.55 24.52 85.56L24.65 86C25.13 85.76 25.64 85.56 26.18 85.4C30.06 84.29 34.02 85.89 35.67 89.04L96.81 71.48C96.54 67.93 99.05 64.47 102.93 63.36C103.47 63.21 104.01 63.1 104.55 63.05L104.42 62.61C103.67 62.82 102.89 62.39 102.68 61.65C102.47 60.91 102.9 60.12 103.64 59.91L103.47 59.32C102.72 59.53 101.94 59.1 101.73 58.36C101.52 57.62 101.95 56.83 102.69 56.62L102.52 56.03C101.77 56.24 100.99 55.81 100.78 55.07C100.57 54.33 101 53.54 101.74 53.33L101.57 52.74C100.82 52.95 100.04 52.52 99.83 51.78C99.62 51.04 100.05 50.25 100.79 50.04L100.62 49.45C99.87 49.66 99.09 49.23 98.88 48.49C98.67 47.75 99.1 46.96 99.84 46.75L99.67 46.16C98.92 46.37 98.14 45.94 97.93 45.2C97.72 44.46 98.15 43.67 98.89 43.46L98.72 42.87C97.97 43.08 97.19 42.65 96.98 41.91C96.77 41.17 97.2 40.38 97.94 40.17L97.77 39.58C97.02 39.79 96.24 39.36 96.03 38.62C95.82 37.88 96.25 37.09 96.99 36.88V36.81ZM93.45 61.45C94.04 63.52 92.84 65.68 90.78 66.28L38 81.44C35.93 82.03 33.77 80.83 33.17 78.77L27.23 58.08C26.64 56.01 27.84 53.85 29.9 53.25L82.68 38.09C84.75 37.5 86.91 38.7 87.51 40.76L93.45 61.45Z" fill="url(#paint4_linear_246_2)"/>
<defs>
<linearGradient id="paint0_linear_246_2" x1="81" y1="-2.75886e-06" x2="37" y2="119" gradientUnits="userSpaceOnUse">
<stop stop-color="#F2A900"/>
<stop offset="1" stop-color="#FF34B3"/>
</linearGradient>
<linearGradient id="paint1_linear_246_2" x1="21.2298" y1="51.8626" x2="98.024" y2="67.6816" gradientUnits="userSpaceOnUse">
<stop stop-color="#2011A2"/>
<stop offset="1" stop-color="#201148"/>
</linearGradient>
<linearGradient id="paint2_linear_246_2" x1="18.7954" y1="63.7055" x2="95.5897" y2="79.5245" gradientUnits="userSpaceOnUse">
<stop stop-color="#2011A2"/>
<stop offset="1" stop-color="#201148"/>
</linearGradient>
<linearGradient id="paint3_linear_246_2" x1="23.7093" y1="39.8511" x2="100.504" y2="55.6701" gradientUnits="userSpaceOnUse">
<stop stop-color="#2011A2"/>
<stop offset="1" stop-color="#201148"/>
</linearGradient>
<linearGradient id="paint4_linear_246_2" x1="21.2721" y1="51.6841" x2="98.0568" y2="67.5059" gradientUnits="userSpaceOnUse">
<stop stop-color="#2011A2"/>
<stop offset="1" stop-color="#201148"/>
</linearGradient>
</defs>
</svg>
